<svg xmlns="http://www.w3.org/2000/svg" xmlns:xlink="http://www.w3.org/1999/xlink" width="746" height="354" viewBox="0 0 746 354"><defs><style>.cls-1,.cls-18,.cls-32,.cls-38,.cls-66,.cls-80{fill:none;}.cls-2{fill:#1487cf;}.cls-3,.cls-30,.cls-31,.cls-34,.cls-35,.cls-36,.cls-37,.cls-39,.cls-40,.cls-44,.cls-46,.cls-71,.cls-79,.cls-81,.cls-82,.cls-84,.cls-85,.cls-86,.cls-88{isolation:isolate;}.cls-3{font-size:4.39px;}.cls-3,.cls-31,.cls-33,.cls-34,.cls-46,.cls-5,.cls-78,.cls-79,.cls-88{fill:#fff;}.cls-3,.cls-30,.cls-31,.cls-34,.cls-35,.cls-36,.cls-37,.cls-39,.cls-40,.cls-41,.cls-44,.cls-78,.cls-79,.cls-81,.cls-82,.cls-84,.cls-85,.cls-86,.cls-87{font-family:Lato-Bold, Lato,sans-serif;font-weight:700;}.cls-4{fill:url(#linear-gradient);}.cls-6{fill:#1487cf;}.cls-7{fill:url(#linear-gradient-2);}.cls-8{fill:url(#linear-gradient-3);}.cls-9{fill:url(#radial-gradient);}.cls-10{fill:url(#radial-gradient-2);}.cls-11{fill:url(#radial-gradient-3);}.cls-12{fill:#857f7c;stroke:#c4bbb9;stroke-width:0.53px;}.cls-12,.cls-38,.cls-65,.cls-66{stroke-miterlimit:10;}.cls-13{fill:#3c3a3a;}.cls-14{fill:#191b1e;}.cls-15{fill:#585552;}.cls-16{fill:#454748;}.cls-17{fill:#010000;}.cls-18,.cls-80{stroke-linejoin:round;}.cls-18{stroke-width:0.29px;stroke:url(#linear-gradient-4);}.cls-19{fill:#0d0b13;}.cls-20{fill:#625e5d;}.cls-21{fill:url(#linear-gradient-5);}.cls-22{fill:#c8c1be;}.cls-23{fill:url(#linear-gradient-6);}.cls-24{fill:url(#linear-gradient-7);}.cls-25{fill:#c4bbb9;}.cls-26{fill:url(#linear-gradient-8);}.cls-27{fill:#353331;}.cls-28{clip-path:url(#clip-path);}.cls-29{fill:#f1f5f8;}.cls-30{font-size:8.41px;}.cls-30,.cls-35,.cls-37,.cls-41,.cls-44,.cls-81,.cls-84,.cls-86,.cls-87{fill:#374656;}.cls-31{font-size:7.74px;}.cls-32,.cls-33,.cls-80{stroke:#fff;}.cls-32,.cls-33,.cls-38{stroke-width:0.25px;}.cls-34,.cls-35,.cls-36,.cls-39{font-size:2.65px;}.cls-36,.cls-82{fill:#788392;}.cls-37,.cls-41{font-size:4.2px;}.cls-38{stroke:#e8e9eb;}.cls-39,.cls-40,.cls-85{fill:#8f99a7;text-decoration:underline;}.cls-40{font-size:2.88px;}.cls-42{fill:#e6ecf2;}.cls-43{fill:#0052b4;}.cls-44{font-size:3.98px;}.cls-45{fill:#dedee0;}.cls-46{font-size:5.09px;}.cls-46,.cls-88{font-family:Lato-Regular, Lato,sans-serif;}.cls-47{fill:url(#radial-gradient-4);}.cls-48{fill:url(#radial-gradient-5);}.cls-49{fill:url(#radial-gradient-6);}.cls-50{fill:url(#linear-gradient-9);}.cls-51{fill:#545454;}.cls-52{fill:url(#linear-gradient-10);}.cls-53{fill:url(#linear-gradient-11);}.cls-54{fill:url(#linear-gradient-12);}.cls-55{fill:url(#linear-gradient-13);}.cls-56{fill:url(#linear-gradient-14);}.cls-57{fill:url(#linear-gradient-15);}.cls-58{fill:url(#linear-gradient-16);}.cls-59{fill:url(#linear-gradient-17);}.cls-60{fill:url(#linear-gradient-18);}.cls-61{fill:url(#linear-gradient-19);}.cls-62{fill:url(#linear-gradient-20);}.cls-63{fill:url(#linear-gradient-21);}.cls-64{fill:#1a1a1c;}.cls-65{stroke:#0d1010;stroke-width:0.25px;fill:url(#radial-gradient-7);}.cls-66{stroke:#1a1a1c;}.cls-67{fill:url(#linear-gradient-22);}.cls-68{fill:url(#linear-gradient-23);}.cls-69{fill:url(#linear-gradient-24);}.cls-70{fill:url(#linear-gradient-25);}.cls-71{fill:#9c9d9f;opacity:0.5;}.cls-72{fill:url(#linear-gradient-26);}.cls-73{fill:url(#linear-gradient-27);}.cls-74{fill:url(#linear-gradient-28);}.cls-75{fill:url(#linear-gradient-29);}.cls-76{clip-path:url(#clip-path-2);}.cls-77{fill:#fcfcf4;}.cls-78{font-size:3.92px;}.cls-79,.cls-86{font-size:4.93px;}.cls-80{stroke-linecap:round;stroke-width:0.5px;}.cls-81{font-size:6.03px;}.cls-82{font-size:2.74px;}.cls-83{fill:#e8e9eb;}.cls-84,.cls-87{font-size:3.84px;}.cls-85{font-size:3.29px;}.cls-88{font-size:3.56px;}</style><linearGradient id="linear-gradient" x1="8368.82" y1="8319.18" x2="8369.05" y2="8319.18" gradientTransform="matrix(1919.74, 0, 0, -760.5, -16065981.71, 6326814.51)" gradientUnits="userSpaceOnUse"><stop offset="0.29" id="gradientColorStart" stop-color="#1487cf"/><stop offset="1" stop-color="#ffd83a"/></linearGradient><linearGradient id="linear-gradient-2" x1="6937.46" y1="9504.93" x2="6939.11" y2="9504.93" gradientTransform="matrix(8.61, 0, 0, -11.93, -59648.05, 113381.98)" xlink:href="#linear-gradient"/><linearGradient id="linear-gradient-3" x1="7101.63" y1="9505.86" x2="7102.99" y2="9505.86" gradientTransform="matrix(10.49, 0, 0, -11.91, -74474.98, 113227.02)" xlink:href="#linear-gradient"/><radialGradient id="radial-gradient" cx="-4662.99" cy="-52370.77" r="88.75" gradientTransform="translate(13639.33 4515.51) scale(2.86 0.08)" gradientUnits="userSpaceOnUse"><stop offset="0" stop-color="#172c3d"/><stop offset="0.25" stop-color="#172c3d" stop-opacity="0.41"/><stop offset="0.43" stop-color="#172c3d" stop-opacity="0.18"/><stop offset="0.64" stop-color="#172c3d" stop-opacity="0.04"/><stop offset="1" stop-color="#172c3d" stop-opacity="0"/></radialGradient><radialGradient id="radial-gradient-2" cx="-4758.01" cy="-52370.77" r="88.75" gradientTransform="translate(14145.33 4515.51) scale(2.86 0.08)" xlink:href="#radial-gradient"/><radialGradient id="radial-gradient-3" cx="-4685.63" cy="-52370.77" r="88.75" gradientTransform="translate(18446.7 4515.51) scale(3.86 0.08)" xlink:href="#radial-gradient"/><linearGradient id="linear-gradient-4" x1="374.55" y1="308.67" x2="374.55" y2="307.31" gradientTransform="matrix(1, 0, 0, -1, 0, 322)" gradientUnits="userSpaceOnUse"><stop offset="0" stop-color="#141719"/><stop offset="1" stop-color="#3e4144"/></linearGradient><linearGradient id="linear-gradient-5" x1="374.55" y1="326.02" x2="374.55" y2="318.06" gradientUnits="userSpaceOnUse"><stop offset="0" stop-color="#353331"/><stop offset="0.24" stop-color="#393634"/><stop offset="0.47" stop-color="#44413f"/><stop offset="0.69" stop-color="#575250"/><stop offset="0.9" stop-color="#716b68"/><stop offset="1" stop-color="#807976"/></linearGradient><linearGradient id="linear-gradient-6" x1="92" y1="316.43" x2="320.58" y2="316.43" gradientUnits="userSpaceOnUse"><stop offset="0" stop-color="#353331"/><stop offset="0" stop-color="#413f3e"/><stop offset="0.01" stop-color="#646362"/><stop offset="0.02" stop-color="#838382"/><stop offset="0.02" stop-color="#9c9d9e"/><stop offset="0.03" stop-color="#b1b3b4"/><stop offset="0.04" stop-color="#c1c3c5"/><stop offset="0.06" stop-color="#cdcfd0"/><stop offset="0.07" stop-color="#d3d5d7"/><stop offset="0.12" stop-color="#d5d7d9"/><stop offset="0.25" stop-color="#cdcacb" stop-opacity="0.55"/><stop offset="0.36" stop-color="#c7bfbe" stop-opacity="0.15"/><stop offset="0.42" stop-color="#c4bbb9" stop-opacity="0"/></linearGradient><linearGradient id="linear-gradient-7" x1="428.52" y1="316.43" x2="657.1" y2="316.43" gradientUnits="userSpaceOnUse"><stop offset="0.58" stop-color="#c4bbb9" stop-opacity="0"/><stop offset="0.64" stop-color="#c7bfbe" stop-opacity="0.15"/><stop offset="0.75" stop-color="#cdcacb" stop-opacity="0.55"/><stop offset="0.88" stop-color="#d5d7d9"/><stop offset="0.93" stop-color="#d3d5d7"/><stop offset="0.94" stop-color="#cdcfd0"/><stop offset="0.96" stop-color="#c1c3c5"/><stop offset="0.97" stop-color="#b1b3b4"/><stop offset="0.98" stop-color="#9c9d9e"/><stop offset="0.98" stop-color="#838382"/><stop offset="0.99" stop-color="#646362"/><stop offset="1" stop-color="#413f3e"/><stop offset="1" stop-color="#353331"/></linearGradient><linearGradient id="linear-gradient-8" x1="320.58" y1="317.02" x2="428.52" y2="317.02" gradientUnits="userSpaceOnUse"><stop offset="0" stop-color="#353331"/><stop offset="0.03" stop-color="#605b59" stop-opacity="0.7"/><stop offset="0.09" stop-color="#8d8684" stop-opacity="0.39"/><stop offset="0.15" stop-color="#ada5a3" stop-opacity="0.16"/><stop offset="0.24" stop-color="#bfb6b4" stop-opacity="0.04"/><stop offset="0.5" stop-color="#c4bbb9" stop-opacity="0"/><stop offset="0.76" stop-color="#bfb6b4" stop-opacity="0.04"/><stop offset="0.85" stop-color="#ada5a3" stop-opacity="0.16"/><stop offset="0.91" stop-color="#8d8684" stop-opacity="0.39"/><stop offset="0.97" stop-color="#605b59" stop-opacity="0.7"/><stop offset="1" stop-color="#353331"/></linearGradient><clipPath id="clip-path"><rect class="cls-1" x="162.19" y="24.89" width="424.71" height="265.96" rx="0.46" ry="0.46"/></clipPath><radialGradient id="radial-gradient-4" cx="-3370.9" cy="-52142" r="69.34" gradientTransform="translate(2827.18 4511.53) scale(0.69 0.08)" xlink:href="#radial-gradient"/><radialGradient id="radial-gradient-5" cx="-3483.77" cy="-52142" r="69.34" gradientTransform="translate(2949.1 4511.53) scale(0.69 0.08)" xlink:href="#radial-gradient"/><radialGradient id="radial-gradient-6" cx="-3730.33" cy="-52142" r="69.34" gradientTransform="translate(3985.55 4511.53) scale(0.93 0.08)" xlink:href="#radial-gradient"/><linearGradient id="linear-gradient-9" x1="517.41" y1="-21.03" x2="517.41" y2="179.65" gradientTransform="matrix(1, 0, 0, -1, 0, 322)" gradientUnits="userSpaceOnUse"><stop offset="0" stop-color="#c9c9c9"/><stop offset="0.01" stop-color="#fff"/><stop offset="0.66" stop-color="#fff"/><stop offset="0.98" stop-color="#fff"/><stop offset="1" stop-color="#c9c9c9"/></linearGradient><linearGradient id="linear-gradient-10" x1="467.22" y1="145.25" x2="467.22" y2="152.98" gradientTransform="matrix(1, 0, 0, -1, 0, 322)" gradientUnits="userSpaceOnUse"><stop offset="0" stop-color="#181818"/><stop offset="0.09" stop-color="#5a5a5a"/><stop offset="0.16" stop-color="#f2f2f2"/><stop offset="0.49" stop-color="#e6e6e6"/><stop offset="0.87" stop-color="#f2f2f2"/><stop offset="0.94" stop-color="#5a5a5a"/><stop offset="1"/></linearGradient><linearGradient id="linear-gradient-11" x1="467.04" y1="145.26" x2="467.04" y2="152.96" gradientTransform="matrix(1, 0, 0, -1, 0, 322)" gradientUnits="userSpaceOnUse"><stop offset="0" stop-color="#181818"/><stop offset="0.09" stop-color="#5a5a5a"/><stop offset="0.19" stop-color="#f2f2f2"/><stop offset="0.49" stop-color="#e6e6e6"/><stop offset="0.83" stop-color="#f2f2f2"/><stop offset="0.94" stop-color="#5a5a5a"/><stop offset="1"/></linearGradient><linearGradient id="linear-gradient-12" x1="466.91" y1="145.43" x2="466.91" y2="152.8" gradientTransform="matrix(1, 0, 0, -1, 0, 322)" gradientUnits="userSpaceOnUse"><stop offset="0" stop-color="#323232"/><stop offset="0.21" stop-color="#707070"/><stop offset="0.78" stop-color="#707070"/><stop offset="1" stop-color="#323232"/></linearGradient><linearGradient id="linear-gradient-13" x1="467.23" y1="123.92" x2="467.23" y2="138.55" gradientTransform="matrix(1, 0, 0, -1, 0, 322)" gradientUnits="userSpaceOnUse"><stop offset="0" stop-color="#181818"/><stop offset="0.04" stop-color="#5a5a5a"/><stop offset="0.1" stop-color="#f2f2f2"/><stop offset="0.49" stop-color="#e6e6e6"/><stop offset="0.91" stop-color="#f2f2f2"/><stop offset="0.96" stop-color="#5a5a5a"/><stop offset="1"/></linearGradient><linearGradient id="linear-gradient-14" x1="467.04" y1="123.93" x2="467.04" y2="138.54" gradientTransform="matrix(1, 0, 0, -1, 0, 322)" gradientUnits="userSpaceOnUse"><stop offset="0" stop-color="#181818"/><stop offset="0.04" stop-color="#5a5a5a"/><stop offset="0.11" stop-color="#f2f2f2"/><stop offset="0.49" stop-color="#e6e6e6"/><stop offset="0.88" stop-color="#f2f2f2"/><stop offset="0.95" stop-color="#5a5a5a"/><stop offset="1"/></linearGradient><linearGradient id="linear-gradient-15" x1="466.91" y1="124.09" x2="466.91" y2="138.37" xlink:href="#linear-gradient-12"/><linearGradient id="linear-gradient-16" x1="467.34" y1="105.43" x2="467.34" y2="120.06" xlink:href="#linear-gradient-13"/><linearGradient id="linear-gradient-17" x1="467.22" y1="105.43" x2="467.22" y2="120.04" xlink:href="#linear-gradient-14"/><linearGradient id="linear-gradient-18" x1="467.09" y1="105.6" x2="467.09" y2="119.87" xlink:href="#linear-gradient-12"/><linearGradient id="linear-gradient-19" x1="31.1" y1="339.56" x2="31.1" y2="362.6" gradientTransform="matrix(-1, 0, 0, 1, 598.67, -151.03)" xlink:href="#linear-gradient-13"/><linearGradient id="linear-gradient-20" x1="30.92" y1="339.58" x2="30.92" y2="362.57" gradientTransform="matrix(-1, 0, 0, 1, 598.67, -151.03)" xlink:href="#linear-gradient-14"/><linearGradient id="linear-gradient-21" x1="30.74" y1="339.81" x2="30.74" y2="362.35" gradientTransform="matrix(-1, 0, 0, 1, 598.67, -151.03)" xlink:href="#linear-gradient-12"/><radialGradient id="radial-gradient-7" cx="528.11" cy="172.44" r="0.88" gradientTransform="matrix(1, 0, 0, -1, -0.07, 322.05)" gradientUnits="userSpaceOnUse"><stop offset="0" stop-color="#235f9d"/><stop offset="1" stop-color="#0c1831"/></radialGradient><linearGradient id="linear-gradient-22" x1="558.13" y1="79.32" x2="564.92" y2="79.32" gradientTransform="matrix(1, 0, 0, -1, 0, 322)" gradientUnits="userSpaceOnUse"><stop offset="0" stop-color="#545454"/><stop offset="1" stop-color="#bbb"/></linearGradient><linearGradient id="linear-gradient-23" x1="476.74" y1="175.72" x2="559" y2="175.72" gradientTransform="matrix(1, 0, 0, -1, 0, 322)" gradientUnits="userSpaceOnUse"><stop offset="0"/><stop offset="0.16" stop-color="#545454"/><stop offset="0.81" stop-color="#545454"/><stop offset="1"/></linearGradient><linearGradient id="linear-gradient-24" x1="475.91" y1="-17.19" x2="559.08" y2="-17.19" xlink:href="#linear-gradient-23"/><linearGradient id="linear-gradient-25" x1="469.98" y1="79.32" x2="476.78" y2="79.32" gradientTransform="matrix(1, 0, 0, -1, 0, 322)" gradientUnits="userSpaceOnUse"><stop offset="0" stop-color="#bbb"/><stop offset="1" stop-color="#545454"/></linearGradient><linearGradient id="linear-gradient-26" x1="472.37" y1="175.01" x2="475.37" y2="175.14" gradientTransform="matrix(1, 0, 0, -1, 0, 322)" gradientUnits="userSpaceOnUse"><stop offset="0.01" stop-color="#191919"/><stop offset="0.36" stop-color="#363636"/><stop offset="1" stop-color="#545454"/></linearGradient><linearGradient id="linear-gradient-27" x1="559.71" y1="174.86" x2="562.53" y2="175.21" gradientTransform="matrix(1, 0, 0, -1, 0, 322)" gradientUnits="userSpaceOnUse"><stop offset="0" stop-color="#545454"/><stop offset="0.64" stop-color="#363636"/><stop offset="0.99" stop-color="#191919"/></linearGradient><linearGradient id="linear-gradient-28" x1="562.55" y1="-16.87" x2="560.55" y2="-15.96" xlink:href="#linear-gradient-26"/><linearGradient id="linear-gradient-29" x1="472.1" y1="-16.73" x2="473.71" y2="-16.27" xlink:href="#linear-gradient-26"/><clipPath id="clip-path-2"><path id="SVGID" class="cls-1" d="M558.3,150.2c-1.09-1.07-3.29-2.34-7.55-2.34h-7.61a1.13,1.13,0,0,0-1,1.21,6.25,6.25,0,0,1-1.5,4.24,4.88,4.88,0,0,1-3.55,1.47H497.91a4.88,4.88,0,0,1-3.55-1.47,6.25,6.25,0,0,1-1.5-4.24,1.13,1.13,0,0,0-1-1.21h-7.81c-4.26,0-6.46,1.27-7.55,2.34-2.57,2.51-3,4.91-3,10.41V324.77c0,5.5.46,7.9,3,10.41,1.09,1.07,3.29,2.34,7.55,2.34h66.69c4.26,0,6.46-1.27,7.55-2.34,2.57-2.51,3-4.91,3-10.41V160.61C561.32,155.11,560.86,152.71,558.3,150.2Z"/></clipPath><symbol id="gradientFill" data-name="gradientFill" viewBox="0 0 426.37 168.91"><rect id="macScreenFill" class="cls-4" width="426.37" height="168.91"/></symbol><symbol id="logo" data-name="logo" viewBox="0 0 76 24.32"><g id="logo-3" data-name="logo"><rect id="Rectangle_146" data-name="Rectangle 146" class="cls-5" width="76.01" height="24.32" rx="6.08" ry="6.08"/><path id="Path_358" data-name="Path 358" class="cls-6" d="M8.42,16.78h-1a.25.25,0,0,1-.25-.25V12.16a.25.25,0,0,1,.25-.25h2.66a1.34,1.34,0,0,0,1.36-1.16,1.29,1.29,0,0,0-1.16-1.42H7.33a.25.25,0,0,1-.25-.25v-1a.25.25,0,0,1,.25-.25H10a2.89,2.89,0,0,1,2.92,2.53,2.81,2.81,0,0,1-2.52,3.07H8.92a.25.25,0,0,0-.25.25v2.85a.25.25,0,0,1-.25.25h0Z"/><path id="Path_359" data-name="Path 359" class="cls-6" d="M19.23,16.78a4.51,4.51,0,1,1,4.51-4.51h0A4.51,4.51,0,0,1,19.23,16.78Zm0-7.5a3,3,0,1,0,3,3h0A3,3,0,0,0,19.23,9.28Z"/><path id="Path_360" data-name="Path 360" class="cls-6" d="M31.09,16.78H26.23a.25.25,0,0,1-.25-.25V8.06a.25.25,0,0,1,.25-.25h1a.25.25,0,0,1,.25.25V15a.25.25,0,0,0,.25.25h3.34a.25.25,0,0,1,.25.25v1a.25.25,0,0,1-.25.25Z"/><rect id="Rectangle_147" data-name="Rectangle 147" class="cls-6" x="34.04" y="7.81" width="1.52" height="8.97" rx="0.32" ry="0.32"/><path id="Path_361" data-name="Path 361" class="cls-6" d="M44,9.69a.26.26,0,0,1-.34.06,3.55,3.55,0,0,0-2.41-.41c-.73.16-1.5.77-.9,1.52.37.48,1.33.61,1.86.83a4.46,4.46,0,0,1,2,1.26c1.06,1.46-.08,3.37-1.7,3.71a6.2,6.2,0,0,1-4.29-.9.25.25,0,0,1-.06-.35h0l.39-.55a.25.25,0,0,1,.26-.1C39.79,15,44,15.8,43.13,14c-.29-.79-2.17-1.1-2.85-1.42a2.39,2.39,0,0,1-1.41-3.16c1-2.07,3.95-1.8,5.59-.75a.25.25,0,0,1,.07.35h0Z"/><path id="Path_362" data-name="Path 362" class="cls-7" d="M58.63,7.81h-1a.25.25,0,0,0-.25.25V13.6a1.75,1.75,0,0,1-2.11,1.71,1.78,1.78,0,0,1-1.38-1.76V8.06a.25.25,0,0,0-.25-.25h-1a.25.25,0,0,0-.25.25v5.43a3.35,3.35,0,0,0,2.84,3.36,3.27,3.27,0,0,0,3.7-3.24V8.06A.25.25,0,0,0,58.63,7.81Z"/><path id="Path_363" data-name="Path 363" class="cls-8" d="M68.11,16.46,65.69,7.91a.25.25,0,0,0-.24-.18H62.91a.25.25,0,0,0-.24.18l-2.52,8.87h1.38a.25.25,0,0,0,.24-.18L62.5,14a.25.25,0,0,1,.24-.18h2.86a.25.25,0,0,1,.24.18l.73,2.56a.25.25,0,0,0,.24.18h1a.25.25,0,0,0,.24-.32ZM65,12.33H63.32a.25.25,0,0,1-.24-.32l.72-2.58A.25.25,0,0,1,64,9.25h.28a.25.25,0,0,1,.24.18L65.27,12a.25.25,0,0,1-.18.31Z"/></g></symbol><symbol id="btn" data-name="btn" viewBox="0 0 45.01 13.16"><g id="btn-3" data-name="btn"><path id="phoneBtnFill" class="cls-2" d="M2.19,0H42.82A2.2,2.2,0,0,1,45,2.2V11a2.19,2.19,0,0,1-2.19,2.19H2.19A2.19,2.19,0,0,1,0,11V2.19A2.19,2.19,0,0,1,2.19,0Z"/><text class="cls-3" transform="translate(9.46 7.95)">Розрахувати</text></g></symbol></defs><title>devices copy</title><g id="devices"><g id="desktop"><g id="desktop-body"><ellipse class="cls-9" cx="255.95" cy="331.47" rx="255.95" ry="6.96"/><ellipse class="cls-10" cx="489.72" cy="331.47" rx="255.95" ry="6.96"/><ellipse class="cls-11" cx="370.56" cy="331.47" rx="342.81" ry="6.96"/><path class="cls-12" d="M605.48,308.32a17.45,17.45,0,0,1-17.7,17.4H161.31a17.45,17.45,0,0,1-17.7-17.4V18.7A17.7,17.7,0,0,1,161.31,1H587.79a17.7,17.7,0,0,1,17.7,17.7Z"/><rect x="145.38" y="2.77" width="458.33" height="321.48" rx="15.93" ry="15.93"/><path class="cls-13" d="M587.79,3.06H161.31A15.65,15.65,0,0,0,145.68,18.7V308.91a6.79,6.79,0,0,0,6.78,6.78H596.64a6.79,6.79,0,0,0,6.78-6.78V18.7A15.65,15.65,0,0,0,587.79,3.06Z"/><path d="M587.79,4.24H161.31A14.47,14.47,0,0,0,146.86,18.7V308.91a5.61,5.61,0,0,0,5.6,5.6H596.64a5.61,5.61,0,0,0,5.6-5.6V18.7A14.47,14.47,0,0,0,587.79,4.24Z"/><path class="cls-14" d="M147.45,302.72v6.16a5,5,0,0,0,5,5H596.64a5,5,0,0,0,5-5v-6.16Z"/><circle class="cls-15" cx="374.55" cy="13.98" r="1.77"/><circle class="cls-16" cx="374.55" cy="13.98" r="0.88"/><circle class="cls-17" cx="374.55" cy="14.01" r="0.68"/><circle class="cls-18" cx="374.55" cy="14.01" r="0.68"/><circle class="cls-19" cx="374.55" cy="14.01" r="0.68"/><path class="cls-20" d="M92.29,318.06s12.09,8,90.56,8H566.24c78.48,0,90.57-8,90.57-8Z"/><path class="cls-21" d="M92.29,318.06s12.09,8,90.56,8H566.24c78.48,0,90.57-8,90.57-8Z"/><path class="cls-22" d="M92.22,314.81A.23.23,0,0,0,92,315v2.78a.23.23,0,0,0,.22.23H320.58v-3.24H92.22Z"/><path class="cls-23" d="M92.22,314.81A.23.23,0,0,0,92,315v2.78a.23.23,0,0,0,.22.23H320.58v-3.24H92.22Z"/><path class="cls-22" d="M656.87,314.81a.23.23,0,0,1,.22.23v2.78a.23.23,0,0,1-.22.23H428.52v-3.24H656.87Z"/><path class="cls-24" d="M656.87,314.81a.23.23,0,0,1,.22.23v2.78a.23.23,0,0,1-.22.23H428.52v-3.24H656.87Z"/><path class="cls-25" d="M385.84,315H363.26s-37.12,0-42.68-.16v3.12s0,1.3,19.1,1.3h69.75c19.1,0,19.1-1.3,19.1-1.3v-3.12C423,315,385.84,315,385.84,315Z"/><path class="cls-26" d="M385.84,315H363.26s-37.12,0-42.68-.16v3.12s0,1.3,19.1,1.3h69.75c19.1,0,19.1-1.3,19.1-1.3v-3.12C423,315,385.84,315,385.84,315Z"/><path class="cls-27" d="M441.61,323.15c-.42.24.45.47,1.93.51a9.72,9.72,0,0,0,3.46-.38c.42-.24-.45-.47-1.93-.51A9.72,9.72,0,0,0,441.61,323.15Z"/><path class="cls-27" d="M599.67,322.86c-.33.24.35.47,1.53.51a6.16,6.16,0,0,0,2.73-.38c.33-.24-.35-.47-1.53-.51A6.14,6.14,0,0,0,599.67,322.86Z"/><path class="cls-27" d="M307.79,323.15c.42.24-.45.47-1.94.51a9.71,9.71,0,0,1-3.46-.38c-.42-.24.45-.47,1.94-.51A9.71,9.71,0,0,1,307.79,323.15Z"/><path class="cls-27" d="M149.72,322.86c.33.24-.35.47-1.53.51a6.17,6.17,0,0,1-2.73-.38c-.33-.24.35-.47,1.53-.51A6.16,6.16,0,0,1,149.72,322.86Z"/></g><g id="desktop-screen"><g class="cls-28"><g id="macScreen"><rect id="_Path_" data-name="&lt;Path&gt;" class="cls-29" x="162.19" y="193.05" width="424.71" height="97.77"/><text class="cls-30" transform="translate(291.38 247.77)">Що таке електронний поліс автоцивілки?</text><use width="426.37" height="168.91" transform="translate(162.22 24.92)" xlink:href="#gradientFill"/><g id="header"><text class="cls-31" transform="translate(338.79 96.54)">Сервіс оформлення</text><text class="cls-31" transform="translate(313.68 107.16)">електронних полісів автоцивілки</text><g id="language"><path class="cls-32" d="M509.25,42.64h10.23a1.66,1.66,0,0,1,1.66,1.66v6.24a1.66,1.66,0,0,1-1.66,1.66H509.25a.11.11,0,0,1-.11-.11V42.75A.11.11,0,0,1,509.25,42.64Z"/><path class="cls-33" d="M498.82,42.64h10.23a.11.11,0,0,1,.11.11v9.34a.11.11,0,0,1-.11.11H498.82a1.66,1.66,0,0,1-1.66-1.66V44.3A1.66,1.66,0,0,1,498.82,42.64Z"/><text class="cls-34" transform="translate(512.21 48.36)">РУC</text><text class="cls-35" transform="translate(500.23 48.36)">УКР</text></g><text class="cls-34" transform="translate(460.02 48.53)">ОСОБИСТИЙ КАБІНЕТ</text><use width="76.01" height="24.32" transform="translate(227.84 42.53) scale(0.4)" xlink:href="#logo"/></g><g id="calc"><rect class="cls-5" x="222.95" y="165.76" width="303.19" height="52.81" rx="1.77" ry="1.77"/><text class="cls-36" transform="translate(355.23 175.23)">ЧИ Є У ВАС ПІЛЬГИ?</text><text class="cls-37" transform="translate(355.23 183.13)">Ні</text><line class="cls-38" x1="407.19" y1="173.59" x2="407.19" y2="185.32"/><text class="cls-36" transform="translate(415.38 175.23)">МІСТО РЕЄСТРАЦІЇ ТЗ</text><text class="cls-37" transform="translate(415.38 183.13)">Івано-Франківськ</text><line class="cls-38" x1="478.96" y1="173.59" x2="478.96" y2="185.32"/><text class="cls-39" transform="translate(415.38 188.95)">Днепро</text><text class="cls-40" transform="translate(428.54 189.18)">Київ</text><text class="cls-40" transform="translate(437.94 189.18)">Львів</text><text class="cls-40" transform="translate(448.63 189.18)">Одеса</text><text class="cls-39" transform="translate(460.7 188.95)">Харків</text><text class="cls-36" transform="translate(487.01 175.23)">ТАКСІ</text><text class="cls-37" transform="translate(487.01 183.13)">Ні</text><text class="cls-36" transform="translate(302.89 175.23)">ПОТУЖНІСТЬ</text><text class="cls-37" transform="translate(302.89 183.13)">51 - 100 кВт</text><line class="cls-38" x1="347.16" y1="173.59" x2="347.16" y2="185.32"/><text class="cls-36" transform="translate(230.76 175.23)">ТРАНСПОРТНИЙ ЗАСІБ</text><text class="cls-37" transform="translate(230.76 183.13)">Електромобіль</text><line class="cls-38" x1="294.91" y1="173.59" x2="294.91" y2="185.32"/><g id="tabs"><path class="cls-5" d="M296.36,146.2h55v11.74h-55a1.77,1.77,0,0,1-1.77-1.77V148A1.77,1.77,0,0,1,296.36,146.2Z"/><g id="tabTextSelected"><text class="cls-41" transform="translate(298.52 153.09)">за параметрами авто</text></g><rect class="cls-42" x="351.32" y="146.2" width="44.99" height="11.74"/><text class="cls-37" transform="translate(355.69 153.09)">за держ. номером</text><path class="cls-42" d="M396.31,146.2H453a1.77,1.77,0,0,1,1.77,1.77v8.2a1.77,1.77,0,0,1-1.77,1.77H396.31V146.2Z"/><text class="cls-37" transform="translate(408.07 153.09)">за єврономером</text><circle class="cls-43" cx="402.18" cy="152.07" r="1.96"/><text class="cls-44" transform="translate(445.95 153.36)">?</text><rect class="cls-45" x="351.08" y="148.16" width="0.24" height="7.82"/><rect class="cls-45" x="396.07" y="148.16" width="0.24" height="7.82"/></g><text class="cls-46" transform="translate(349.67 142)">Розрахувати вартість</text><use width="45.01" height="13.16" transform="translate(352.13 198.33)" xlink:href="#btn"/></g></g></g></g></g><g id="mobile"><g id="mobile-body"><ellipse class="cls-47" cx="495.59" cy="348.57" rx="48.18" ry="5.43"/><ellipse class="cls-48" cx="539.6" cy="348.57" rx="48.18" ry="5.43"/><ellipse class="cls-49" cx="517.17" cy="348.57" rx="64.53" ry="5.43"/><path d="M567.36,160.61c0-6.56-.68-10.64-4.84-14.72s-9.81-4.07-11.78-4.07H484.06c-2,0-7.76.13-11.78,4.07s-4.84,8.16-4.84,14.72V324.77c0,6.56.68,10.64,4.84,14.72s9.81,4.07,11.78,4.07h66.69c2,0,7.76-.13,11.78-4.07s4.84-8.16,4.84-14.72Z"/><path class="cls-50" d="M562.16,146.27c-1.82-1.8-5.29-3.92-11.41-3.92H484.06c-6.14,0-9.58,2.13-11.41,3.92-4,3.89-4.69,7.73-4.69,14.34V324.77c0,6.62.7,10.46,4.69,14.34,1.83,1.8,5.29,3.92,11.41,3.92h66.69c6.14,0,9.58-2.13,11.41-3.92,4-3.89,4.69-7.73,4.69-14.34V160.61C566.83,154,566.13,150.16,562.16,146.27Zm3.72,178.5c0,6.49-.64,10-4.39,13.66-1.7,1.66-4.94,3.64-10.74,3.64H484.06c-5.8,0-9-2-10.74-3.64-3.76-3.68-4.39-7.19-4.39-13.66V160.61c0-6.49.63-10,4.39-13.66,1.7-1.66,4.94-3.64,10.74-3.64h66.69c5.8,0,9,2,10.74,3.64,3.76,3.68,4.39,7.19,4.39,13.66Z"/><path class="cls-51" d="M561.26,147.19c-1.65-1.62-4.82-3.55-10.51-3.55H484.06c-5.69,0-8.85,1.93-10.5,3.55-3.67,3.61-4.29,7-4.29,13.43V324.77c0,6.38.62,9.83,4.29,13.43,1.65,1.62,4.82,3.55,10.51,3.55h66.69c5.69,0,8.85-1.93,10.5-3.55,3.67-3.61,4.29-7,4.29-13.43V160.61C565.55,154.23,564.93,150.78,561.26,147.19Zm3.89,177.59c0,6.26-.6,9.65-4.17,13.14-1.6,1.57-4.68,3.44-10.23,3.44H484.06c-5.55,0-8.63-1.87-10.23-3.44-3.57-3.49-4.17-6.88-4.17-13.14V160.61c0-6.26.6-9.65,4.17-13.14,1.6-1.57,4.68-3.44,10.23-3.44h66.69c5.55,0,8.63,1.87,10.23,3.44,3.57,3.49,4.17,6.88,4.17,13.14Z"/><path class="cls-1" d="M484.06,341c-5.44,0-8.44-1.8-10-3.34-3.48-3.41-4.07-6.74-4.07-12.91V160.61c0-6.17.59-9.49,4.07-12.91,1.56-1.53,4.56-3.34,10-3.34h66.69c5.45,0,8.44,1.8,10,3.34,3.48,3.41,4.07,6.74,4.07,12.91V324.77c0,6.17-.59,9.49-4.07,12.91-1.56,1.53-4.55,3.34-10,3.34Z"/><path class="cls-52" d="M467.58,176.75h-.25a.47.47,0,0,1-.48-.45s0,0,0,0v-6.79a.47.47,0,0,1,.47-.47h.26Z"/><path class="cls-53" d="M467.22,169a.47.47,0,0,0-.36.45v6.79a.47.47,0,0,0,.36.45Z"/><path class="cls-54" d="M467,169.2a.46.46,0,0,0-.1.29v6.79a.46.46,0,0,0,.1.29Z"/><path class="cls-55" d="M467.58,198.08h-.25a.47.47,0,0,1-.47-.47h0v-13.7a.47.47,0,0,1,.47-.47h.25Z"/><path class="cls-56" d="M467.22,183.46a.47.47,0,0,0-.36.45v13.7a.47.47,0,0,0,.36.45Z"/><path class="cls-57" d="M467,183.63a.46.46,0,0,0-.1.29v13.7a.46.46,0,0,0,.1.29Z"/><path class="cls-58" d="M467.65,216.57h-.14a.47.47,0,0,1-.47-.47h0v-13.7a.47.47,0,0,1,.47-.47h.14Z"/><path class="cls-59" d="M467.4,202a.47.47,0,0,0-.36.45v13.7a.47.47,0,0,0,.36.45Z"/><path class="cls-60" d="M467.14,202.13a.46.46,0,0,0-.1.29v13.7a.46.46,0,0,0,.1.29Z"/><path class="cls-61" d="M567.15,188.53h.2a.65.65,0,0,1,.65.65h0v21.74a.65.65,0,0,1-.65.65h-.2Z"/><path class="cls-62" d="M567.5,211.54a.65.65,0,0,0,.49-.63V189.18a.65.65,0,0,0-.49-.63Z"/><path class="cls-63" d="M567.86,211.32a.64.64,0,0,0,.14-.4V189.18a.64.64,0,0,0-.14-.4Z"/><circle class="cls-64" cx="528.27" cy="149.77" r="1.54"/><circle class="cls-65" cx="528.27" cy="149.77" r="0.88"/><path class="cls-66" d="M523.57,149.77a.83.83,0,0,1-.83.82H512a.82.82,0,0,1-.82-.82h0A.82.82,0,0,1,512,149h10.76a.81.81,0,0,1,.81.82Z"/><path class="cls-67" d="M561.71,334.35a7.67,7.67,0,0,0,.8-2.6,25.71,25.71,0,0,0,.66-7V160.61a27.09,27.09,0,0,0-1.08-8.19,13.58,13.58,0,0,0-3-5.07,6,6,0,0,1-.94-1.53,10.23,10.23,0,0,1,2.72,1.88c3.48,3.41,4.07,6.74,4.07,12.91V324.77c0,6.17-.59,9.49-4.07,12.91a10.19,10.19,0,0,1-2.68,1.86C558.26,338.77,560.23,336.88,561.71,334.35Z"/><path class="cls-68" d="M484.06,144.36a17,17,0,0,0-6.9,1.28,9.82,9.82,0,0,1-.36,1.08c-.32.65.56,0,2.33-.36a18.15,18.15,0,0,1,4.71-.55h67.28a14.06,14.06,0,0,1,6.75,1.89c.23.13.44.26.64.4.92.46.46-1.08-.4-2l-.46-.47a17.21,17.21,0,0,0-6.88-1.28Z"/><path class="cls-69" d="M550.75,341a10.75,10.75,0,0,0,8.33-3.66c-2.63,2.1-7.61,2.16-7.61,2.16s-63.37,0-68.39,0c-4.93-.18-7.16-2-7.16-2s1.94,2.84,8.15,3.5Z"/><path class="cls-70" d="M473.2,334.35a7.67,7.67,0,0,1-.8-2.6,25.71,25.71,0,0,1-.66-7V160.61a27.09,27.09,0,0,1,1.08-8.19,13.58,13.58,0,0,1,3-5.07,6,6,0,0,0,.94-1.53,10.23,10.23,0,0,0-2.72,1.88c-3.48,3.41-4.07,6.74-4.07,12.91V324.77c0,6.17.59,9.49,4.07,12.91a10.18,10.18,0,0,0,2.68,1.86C476.65,338.77,474.68,336.88,473.2,334.35Z"/><rect class="cls-71" x="467.45" y="322.98" width="1.59" height="1.28"/><rect class="cls-71" x="565.78" y="322.98" width="1.59" height="1.28"/><rect class="cls-71" x="467.45" y="161.1" width="1.59" height="1.28"/><rect class="cls-71" x="565.78" y="161.1" width="1.59" height="1.28"/><path class="cls-72" d="M473.91,146.42a11.83,11.83,0,0,1,2.83-1.73h0a12.49,12.49,0,0,0-3.45,1,16.22,16.22,0,0,0-3.06,3.54A14.2,14.2,0,0,1,473.91,146.42Z"/><path class="cls-73" d="M560.9,146.42a11.69,11.69,0,0,0-2.81-1.73h0a10,10,0,0,1,3.38.93,8.74,8.74,0,0,1,.72.65,15.72,15.72,0,0,1,2.42,2.92A14.29,14.29,0,0,0,560.9,146.42Z"/><path class="cls-74" d="M561,338.88a12.43,12.43,0,0,1-2.79,1.73h0a9.87,9.87,0,0,0,3.37-.92,8.22,8.22,0,0,0,.72-.64,15.49,15.49,0,0,0,2.35-2.94A14.14,14.14,0,0,1,561,338.88Z"/><path class="cls-75" d="M473.8,338.87a11.8,11.8,0,0,0,2.82,1.75h0a9.94,9.94,0,0,1-3.38-.92,8.18,8.18,0,0,1-.72-.65,15.42,15.42,0,0,1-2.34-2.94A14,14,0,0,0,473.8,338.87Z"/></g><g id="mobile-screen"><g class="cls-76"><g id="screen"><rect class="cls-5" x="473.49" y="154.85" width="87.83" height="206.1"/><use width="426.37" height="168.91" transform="translate(473.49 147.41) scale(0.21 0.97)" xlink:href="#gradientFill"/><rect class="cls-29" x="473.49" y="310.53" width="87.83" height="29.02"/><path class="cls-77" d="M545.75,151.82h.35a.12.12,0,0,1,.12.12v2.34a.12.12,0,0,1-.12.12h-.35a.12.12,0,0,1-.12-.12v-2.34A.12.12,0,0,1,545.75,151.82Zm-1.18.74v1.72a.12.12,0,0,0,.12.12H545a.12.12,0,0,0,.12-.12v-1.72a.12.12,0,0,0-.12-.12h-.35A.12.12,0,0,0,544.58,152.57Zm-1.07.53v1.19a.12.12,0,0,0,.12.12H544a.12.12,0,0,0,.12-.12v-1.19A.12.12,0,0,0,544,153h-.35A.12.12,0,0,0,543.51,153.09Zm-1.07.42v.78a.12.12,0,0,0,.12.12h.35a.12.12,0,0,0,.12-.12v-.78a.12.12,0,0,0-.12-.12h-.35A.12.12,0,0,0,542.44,153.51ZM548,153a2,2,0,0,1,2.7,0l.46-.46a2.58,2.58,0,0,0-3.61,0l.47.45Zm2,.67.45-.46a1.63,1.63,0,0,0-2.27,0l.46.45A1,1,0,0,1,550,153.68Zm-1.13.23.45.45.45-.45A.67.67,0,0,0,548.88,153.92Zm8.63-1.59v1.55a.58.58,0,0,1-.58.58h-4a.58.58,0,0,1-.58-.58v-1.55h0a.58.58,0,0,1,.58-.58h4A.58.58,0,0,1,557.51,152.33Zm-.22,0a.36.36,0,0,0-.36-.36h-4a.36.36,0,0,0-.36.36v1.55a.36.36,0,0,0,.36.36h4a.36.36,0,0,0,.36-.36Zm-4.45,0v1.55a.12.12,0,0,0,.12.12h4a.12.12,0,0,0,.12-.12v-1.55a.12.12,0,0,0-.12-.12h-4A.12.12,0,0,0,552.84,152.34Zm5.23.77a.31.31,0,0,0-.31-.31v.62a.31.31,0,0,0,.31-.31Z"/><text class="cls-78" transform="translate(479.59 154.45)">19:44</text><text class="cls-79" transform="translate(478.45 192.44)">Сервіс оформлення електронних </text><text class="cls-79" transform="translate(494.61 199.01)">полісів автоцивілки</text><path class="cls-80" d="M540.73,167.51H538a.55.55,0,0,1-.55-.55v-.55c0-.3.86-.55,1.92-.55s1.92.25,1.92.55V167A.55.55,0,0,1,540.73,167.51ZM539.36,165c-.61,0-.82-.49-.82-1.1s.22-.82.82-.82.82.22.82.82S540,165,539.36,165Zm15.1-.82h-3.84m3.84,1.37H552m2.47,1.37h-1.1"/><use width="76.01" height="24.32" transform="translate(480.08 161.48) scale(0.36 0.36)" xlink:href="#logo"/><g id="calc-2" data-name="calc"><path class="cls-5" d="M480.07,251.33h74.66a2.2,2.2,0,0,1,2.2,2.2V339a2.2,2.2,0,0,1-2.2,2.2H480.08a2.2,2.2,0,0,1-2.2-2.2V253.52A2.19,2.19,0,0,1,480.07,251.33Z"/><use width="45.01" height="13.16" transform="translate(494.9 317.11)" xlink:href="#btn"/><text class="cls-81" transform="translate(500.57 273.22)">АА 4583 АА</text><text class="cls-82" transform="translate(489.84 262.25)">ВВЕДІТЬ НОМЕР ВАШОГО АВТОМОБІЛЯ</text><rect class="cls-83" x="482.27" y="310.26" width="70.26" height="0.27"/><text class="cls-82" transform="translate(502.6 288.56)">МІСТО РЕЄСТРАЦІЇ ТЗ</text><text class="cls-84" transform="translate(501.2 295.14)">Івано-Франківськ</text><text class="cls-85" transform="translate(485.83 303.91)">Дніпро</text><text class="cls-85" transform="translate(501.2 303.91)">Київ</text><text class="cls-85" transform="translate(512.18 303.91)">Львів</text><text class="cls-85" transform="translate(524.8 303.91)">Одеса</text><text class="cls-85" transform="translate(538.8 303.91)">Харків</text></g><g id="tabs-2" data-name="tabs"><path class="cls-42" d="M480.08,220.63h38.15v13.16H477.88v-11A2.19,2.19,0,0,1,480.08,220.63Z"/><path class="cls-42" d="M477.88,233.79h79v11a2.19,2.19,0,0,1-2.2,2.19H480.08a2.19,2.19,0,0,1-2.2-2.19v-11Z"/><text class="cls-84" transform="translate(486.59 241.74)">за єврономером</text><circle class="cls-43" cx="482.28" cy="240.37" r="2.2"/><text class="cls-86" transform="translate(549.24 242.28)">?</text><text class="cls-84" transform="translate(479.07 228.58)">за параметрами авто</text><path class="cls-5" d="M518.23,220.63h36.5a2.19,2.19,0,0,1,2.2,2.19v11h-38.7Z"/><g id="tabTextSelected-2" data-name="tabTextSelected"><text class="cls-87" transform="translate(521.32 228.58)">за держ. номером</text></g><rect class="cls-45" x="517.95" y="222.83" width="0.27" height="8.77"/><rect class="cls-45" x="480.08" y="233.51" width="74.65" height="0.27"/><text class="cls-88" transform="translate(500.15 218.44)">Розрахувати вартість</text></g></g></g></g></g></g></svg>