<svg xmlns="http://www.w3.org/2000/svg" xmlns:xlink="http://www.w3.org/1999/xlink" id="Layer_1" width="451.63" height="480" data-name="Layer 1"><defs><style>.cls-1,.cls-16,.cls-9{fill:none}.cls-64,.cls-73,.cls-76,.cls-78,.cls-79{isolation:isolate}.cls-26,.cls-5,.cls-73{fill:#fff}.cls-73,.cls-76,.cls-78,.cls-79{font-family:Lato-Bold,Lato,Arial}.cls-28,.cls-30,.cls-34,.cls-73,.cls-76,.cls-78,.cls-79{font-weight:700}.cls-6{fill:#1487cf}.cls-16,.cls-9{stroke:#b3cdc5}.cls-15,.cls-16,.cls-26,.cls-9{stroke-miterlimit:10}.cls-9{stroke-width:.5px;stroke-dasharray:1}.cls-30,.cls-34{font-family:Arial-BoldMT,Arial}.cls-15{fill:#c0f5e3}.cls-15,.cls-26{stroke:#827b7c}.cls-15,.cls-16,.cls-26{stroke-width:.35px}.cls-15,.cls-16{stroke-dasharray:.7}.cls-24,.cls-30,.cls-33,.cls-34,.cls-35,.cls-36,.cls-37,.cls-38{fill:#626161}.cls-33,.cls-36,.cls-38{font-family:ArialMT,Arial}.cls-30{font-size:3.429px}.cls-24,.cls-35,.cls-37{font-family:Arial-ItalicMT,Arial;font-style:italic}.cls-24,.cls-33,.cls-34{font-size:3px}.cls-27{fill:#4e963d}.cls-28{font-size:14.572px;fill:#fdcd21;font-family:TimesNewRomanPS-BoldMT,Times New Roman;letter-spacing:.04em}.cls-35,.cls-38{font-size:2.572px}.cls-36,.cls-37{font-size:2.143px}.cls-64{fill:#9c9d9f;opacity:.5}.cls-73{font-size:11.236px}.cls-78{fill:#374656}.cls-76{font-size:6.242px;fill:#788392}.cls-78{font-size:8.739px}.cls-79{font-size:7.491px;fill:#8f99a7;text-decoration:underline}.cls-80{fill:#e6ecf2}.cls-84{fill:#dedee0}</style><linearGradient id="linear-gradient" x1="8368.82" x2="8369.05" y1="8319.18" y2="8319.18" gradientTransform="matrix(1919.742 0 0 -760.499 -16065981.71 6326814.5)" gradientUnits="userSpaceOnUse"><stop offset="0" stop-color="#1487cf"/><stop offset=".29" stop-color="#1487cf"/><stop offset="1" stop-color="#ffd83a"/></linearGradient><linearGradient id="linear-gradient-2" x1="6937.46" x2="6939.11" y1="9504.93" y2="9504.93" gradientTransform="matrix(8.605 0 0 -11.927 -59648.05 113381.98)" xlink:href="#linear-gradient"/><linearGradient id="linear-gradient-3" x1="7101.63" x2="7102.99" y1="9505.86" y2="9505.86" gradientTransform="matrix(10.494 0 0 -11.91 -74474.98 113227.02)" xlink:href="#linear-gradient"/><radialGradient id="radial-gradient" cx="348.69" cy="446.94" r="102.73" gradientTransform="matrix(1 0 0 .189 0 362.3)" gradientUnits="userSpaceOnUse"><stop offset="0" stop-color="#172c3d"/><stop offset=".09" stop-color="#172c3d" stop-opacity=".74"/><stop offset=".25" stop-color="#172c3d" stop-opacity=".41"/><stop offset=".42" stop-color="#172c3d" stop-opacity=".18"/><stop offset=".64" stop-color="#172c3d" stop-opacity=".04"/><stop offset="1" stop-color="#172c3d" stop-opacity="0"/></radialGradient><radialGradient id="radial-gradient-2" cx="356.4" cy="446.39" r="27.1" gradientTransform="matrix(1 0 0 .192 0 360.47)" gradientUnits="userSpaceOnUse"><stop offset=".15" stop-color="#172c3d"/><stop offset=".23" stop-color="#172c3d" stop-opacity=".74"/><stop offset=".36" stop-color="#172c3d" stop-opacity=".41"/><stop offset=".51" stop-color="#172c3d" stop-opacity=".18"/><stop offset=".69" stop-color="#172c3d" stop-opacity=".04"/><stop offset="1" stop-color="#172c3d" stop-opacity="0"/></radialGradient><radialGradient id="radial-gradient-3" cx="145.51" cy="459.71" r="108.6" gradientTransform="matrix(1.351 0 0 .189 -48.75 372.64)" xlink:href="#radial-gradient"/><radialGradient id="radial-gradient-4" cx="100.91" cy="459.71" r="108.6" gradientTransform="matrix(.767 0 0 .189 6.07 372.64)" xlink:href="#radial-gradient"/><radialGradient id="radial-gradient-5" cx="270.47" cy="459.71" r="108.6" gradientTransform="matrix(.767 0 0 .189 6.07 372.64)" xlink:href="#radial-gradient"/><linearGradient id="linear-gradient-4" x1="142.64" x2="142.64" y1="-40.27" y2="416.79" gradientTransform="matrix(1 0 0 -1 0 418)" gradientUnits="userSpaceOnUse"><stop offset="0" stop-color="#c9c9c9"/><stop offset=".01" stop-color="#fff"/><stop offset=".66" stop-color="#fff"/><stop offset=".98" stop-color="#fff"/><stop offset="1" stop-color="#c9c9c9"/></linearGradient><linearGradient id="linear-gradient-5" x1="28.34" x2="28.34" y1="338.44" y2="356.05" gradientTransform="matrix(1 0 0 -1 0 418)" gradientUnits="userSpaceOnUse"><stop offset="0" stop-color="#181818"/><stop offset=".09" stop-color="#5a5a5a"/><stop offset=".16" stop-color="#f2f2f2"/><stop offset=".49" stop-color="#e6e6e6"/><stop offset=".87" stop-color="#f2f2f2"/><stop offset=".94" stop-color="#5a5a5a"/><stop offset="1"/></linearGradient><linearGradient id="linear-gradient-6" x1="27.93" x2="27.93" y1="338.47" y2="356.02" gradientTransform="matrix(1 0 0 -1 0 418)" gradientUnits="userSpaceOnUse"><stop offset="0" stop-color="#181818"/><stop offset=".09" stop-color="#5a5a5a"/><stop offset=".19" stop-color="#f2f2f2"/><stop offset=".49" stop-color="#e6e6e6"/><stop offset=".83" stop-color="#f2f2f2"/><stop offset=".94" stop-color="#5a5a5a"/><stop offset="1"/></linearGradient><linearGradient id="linear-gradient-7" x1="27.63" x2="27.63" y1="338.85" y2="355.65" gradientTransform="matrix(1 0 0 -1 0 418)" gradientUnits="userSpaceOnUse"><stop offset="0" stop-color="#323232"/><stop offset=".21" stop-color="#707070"/><stop offset=".78" stop-color="#707070"/><stop offset="1" stop-color="#323232"/></linearGradient><linearGradient id="linear-gradient-8" x1="28.35" x2="28.35" y1="289.87" y2="323.2" gradientTransform="matrix(1 0 0 -1 0 418)" gradientUnits="userSpaceOnUse"><stop offset="0" stop-color="#181818"/><stop offset=".04" stop-color="#5a5a5a"/><stop offset=".1" stop-color="#f2f2f2"/><stop offset=".49" stop-color="#e6e6e6"/><stop offset=".91" stop-color="#f2f2f2"/><stop offset=".96" stop-color="#5a5a5a"/><stop offset="1"/></linearGradient><linearGradient id="linear-gradient-9" x1="27.93" x2="27.93" y1="289.89" y2="323.16" gradientTransform="matrix(1 0 0 -1 0 418)" gradientUnits="userSpaceOnUse"><stop offset="0" stop-color="#181818"/><stop offset=".04" stop-color="#5a5a5a"/><stop offset=".11" stop-color="#f2f2f2"/><stop offset=".49" stop-color="#e6e6e6"/><stop offset=".88" stop-color="#f2f2f2"/><stop offset=".95" stop-color="#5a5a5a"/><stop offset="1"/></linearGradient><linearGradient id="linear-gradient-10" x1="27.63" x2="27.63" y1="290.26" y2="322.79" xlink:href="#linear-gradient-7"/><linearGradient id="linear-gradient-11" x1="28.62" x2="28.62" y1="247.74" y2="281.07" xlink:href="#linear-gradient-8"/><linearGradient id="linear-gradient-12" x1="28.33" x2="28.33" y1="247.76" y2="281.02" xlink:href="#linear-gradient-9"/><linearGradient id="linear-gradient-13" x1="28.04" x2="28.04" y1="248.13" y2="280.65" xlink:href="#linear-gradient-7"/><linearGradient id="linear-gradient-14" x1="1933.78" x2="1933.78" y1="257.42" y2="309.88" gradientTransform="matrix(-1 0 0 1 2190.67 -151.03)" xlink:href="#linear-gradient-8"/><linearGradient id="linear-gradient-15" x1="1933.38" x2="1933.38" y1="257.45" y2="309.83" gradientTransform="matrix(-1 0 0 1 2190.67 -151.03)" xlink:href="#linear-gradient-9"/><linearGradient id="linear-gradient-16" x1="1932.97" x2="1932.97" y1="257.97" y2="309.31" gradientTransform="matrix(-1 0 0 1 2190.67 -151.03)" xlink:href="#linear-gradient-7"/><radialGradient id="radial-gradient-6" cx="167.75" cy="400.28" r="2.01" gradientTransform="matrix(1 0 0 -.999 -.43 418)" gradientUnits="userSpaceOnUse"><stop offset="0" stop-color="#235f9d"/><stop offset="1" stop-color="#0c1831"/></radialGradient><linearGradient id="linear-gradient-17" x1="235.39" x2="250.87" y1="188.29" y2="188.29" gradientTransform="matrix(1 0 0 -1 0 418)" gradientUnits="userSpaceOnUse"><stop offset="0" stop-color="#545454"/><stop offset="1" stop-color="#bbb"/></linearGradient><linearGradient id="linear-gradient-18" x1="50.01" x2="237.37" y1="407.85" y2="407.85" gradientTransform="matrix(1 0 0 -1 0 418)" gradientUnits="userSpaceOnUse"><stop offset="0"/><stop offset=".16" stop-color="#545454"/><stop offset=".81" stop-color="#545454"/><stop offset="1"/></linearGradient><linearGradient id="linear-gradient-19" x1="48.14" x2="237.56" y1="-31.52" y2="-31.52" xlink:href="#linear-gradient-18"/><linearGradient id="linear-gradient-20" x1="34.63" x2="50.11" y1="188.29" y2="188.29" gradientTransform="matrix(1 0 0 -1 0 418)" gradientUnits="userSpaceOnUse"><stop offset="0" stop-color="#bbb"/><stop offset="1" stop-color="#545454"/></linearGradient><linearGradient id="linear-gradient-21" x1="40.08" x2="46.89" y1="406.23" y2="406.52" gradientTransform="matrix(1 0 0 -1 0 418)" gradientUnits="userSpaceOnUse"><stop offset=".01" stop-color="#191919"/><stop offset=".36" stop-color="#363636"/><stop offset="1" stop-color="#545454"/></linearGradient><linearGradient id="linear-gradient-22" x1="238.98" x2="245.42" y1="405.88" y2="406.68" gradientTransform="matrix(1 0 0 -1 0 418)" gradientUnits="userSpaceOnUse"><stop offset="0" stop-color="#545454"/><stop offset=".64" stop-color="#363636"/><stop offset=".99" stop-color="#191919"/></linearGradient><linearGradient id="linear-gradient-23" x1="245.45" x2="240.9" y1="-30.8" y2="-28.73" xlink:href="#linear-gradient-21"/><linearGradient id="linear-gradient-24" x1="39.46" x2="43.11" y1="-30.48" y2="-29.43" xlink:href="#linear-gradient-21"/><clipPath id="clip-path"><path id="SVGID" d="M235.77 19.09c-2.49-2.44-7.49-5.34-17.2-5.34h-17.32a2.57 2.57 0 0 0-2.29 2.76c-.17 2.9-.53 6.72-3.4 9.66a11.11 11.11 0 0 1-8.08 3.35H98.24a11.11 11.11 0 0 1-8.07-3.35c-2.88-2.94-3.24-6.76-3.42-9.66a2.57 2.57 0 0 0-2.28-2.76H66.69c-9.7 0-14.7 2.9-17.19 5.34-5.84 5.72-6.88 11.18-6.88 23.7v373.9c0 12.52 1.04 17.98 6.88 23.7 2.49 2.44 7.49 5.34 17.2 5.34h151.88c9.7 0 14.7-2.9 17.19-5.34 5.84-5.72 6.88-11.18 6.88-23.7V42.79c0-12.52-1.04-17.98-6.88-23.7z" class="cls-1"/></clipPath><symbol id="spc" data-name="spc" viewBox="0 0 11.46 12.41"><path d="M.25.25h10.96v11.91H.25z" class="cls-9"/><path d="M10.13 1.08L1.08 6.75h9.05L2.04 11.5" class="cls-9"/></symbol><symbol id="gradientFill" data-name="gradientFill" viewBox="0 0 426.37 168.91"><path id="macScreenFill" fill="url(#linear-gradient)" d="M0 0h426.37v168.91H0z"/></symbol><symbol id="logo" data-name="logo" viewBox="0 0 76 24.32"><g id="logo-3" data-name="logo"><rect id="Rectangle_146" width="76" height="24.32" class="cls-5" data-name="Rectangle 146" rx="6.08" ry="6.08"/></g></symbol><symbol id="btn" data-name="btn" viewBox="0 0 45.01 13.16"><g id="btn-3" data-name="btn"><path id="phoneBtnFill" fill="#0a994a" d="M2.2 0h40.62a2.2 2.2 0 0 1 2.2 2.2v8.77a2.2 2.2 0 0 1-2.2 2.19H2.2a2.2 2.2 0 0 1-2.2-2.2V2.2A2.2 2.2 0 0 1 2.2 0z"/><text fill="#fff" font-family="Lato-Bold,Lato,sans-serif" font-size="4.38" font-weight="700" style="isolation:isolate" transform="translate(9.46 7.95)">Розрахувати</text></g></symbol></defs><ellipse cx="348.69" cy="446.94" fill="url(#radial-gradient)" opacity=".4" rx="102.94" ry="19.19"/><ellipse cx="356.4" cy="446.39" fill="url(#radial-gradient-2)" opacity=".1" rx="27.25" ry="5.52"/><path fill="#cef8ea" d="M174.6 98.03h230.79v323.85H174.6z" transform="rotate(15.57 290 259.95)"/><text fill="#c6eee1" font-family="Arial-BoldMT,Arial" font-size="58.29" font-weight="700" transform="rotate(-29.43 644.12 -255.2)">УКРАЇНА</text><path fill="#c0f5e3" stroke="#827b7c" stroke-miterlimit="10" stroke-width=".69972" d="M224.91 98.3l70.71 19.67-9.32 33.5-70.71-19.68z"/><path d="M160.97 316.79h106.79v36.93H160.97z" class="cls-15" transform="rotate(15.57 214.36 335.25)"/><path d="M260.09 185.17h158.5v5.11h-158.5z" class="cls-16" transform="rotate(15.57 339.34 187.72)"/><path d="M257.83 193.25h158.5v5.11h-158.5z" class="cls-16" transform="rotate(15.57 337.08 195.8)"/><path d="M255.7 200.93h158.5v5.11H255.7z" class="cls-16" transform="rotate(15.57 334.95 203.47)"/><path d="M200.9 189.72h104.81v4.18H200.9z" class="cls-16" transform="rotate(15.57 253.3 191.8)"/><path d="M199.78 193.75h104.81v4.18H199.78z" class="cls-16" transform="rotate(15.57 252.18 195.83)"/><path d="M198.66 197.77h104.81v4.18H198.66z" class="cls-16" transform="rotate(15.57 251.06 199.86)"/><path d="M304.51 218.74h105.86v4.18H304.51z" class="cls-16" transform="rotate(15.57 357.43 220.83)"/><path d="M303.39 222.77h105.86v4.18H303.39z" class="cls-16" transform="rotate(15.55 356.88 225.3)"/><path d="M302.26 226.79h105.86v4.18H302.26z" class="cls-16" transform="rotate(15.57 355.19 228.88)"/><path d="M313.93 235.23h91.98v5.05h-91.98z" class="cls-16" transform="rotate(15.55 360.49 238.22)"/><path d="M217.32 226.12h54.48v5.05h-54.48z" class="cls-16" transform="rotate(15.55 244.93 229.08)"/><path d="M280.71 237.79h11.43v5.05h-11.43z" class="cls-16" transform="rotate(15.57 286.42 240.3)"/><path d="M271.95 249.26h4.68v5.3h-4.68z" class="cls-16" transform="rotate(15.55 274.7 252.39)"/><path d="M276.46 250.52h4.68v5.3h-4.68z" class="cls-16" transform="rotate(15.57 278.8 253.16)"/><path d="M306.15 258.76h4.42v5.3h-4.42z" class="cls-16" transform="rotate(15.55 308.83 261.9)"/><path d="M310.41 259.94h4.42v5.3h-4.42z" class="cls-16" transform="rotate(15.57 312.61 262.6)"/><path d="M314.67 261.13h4.42v5.3h-4.42z" class="cls-16" transform="rotate(15.55 317.36 264.28)"/><path d="M318.93 262.32h4.42v5.3h-4.42z" class="cls-16" transform="rotate(15.57 321.14 264.96)"/><path d="M323.19 263.51h4.42v5.3h-4.42z" class="cls-16" transform="rotate(15.55 325.9 266.66)"/><path d="M327.45 264.69h4.42v5.3h-4.42z" class="cls-16" transform="rotate(15.57 329.66 267.34)"/><path d="M331.71 265.88h4.42v5.3h-4.42z" class="cls-16" transform="rotate(15.57 333.92 268.52)"/><path d="M335.97 267.07h4.42v5.3h-4.42z" class="cls-16" transform="rotate(15.57 338.18 269.72)"/><path d="M227.33 250.25h4.42v5.3h-4.42z" class="cls-16" transform="rotate(15.57 229.54 252.9)"/><path d="M231.59 251.44h4.42v5.3h-4.42z" class="cls-16" transform="rotate(15.57 233.8 254.09)"/><path d="M235.85 252.63h4.42v5.3h-4.42z" class="cls-16" transform="rotate(15.57 238.06 255.27)"/><path d="M240.12 253.81h4.42v5.3h-4.42z" class="cls-16" transform="rotate(15.57 242.32 256.46)"/><path d="M244.38 255h4.42v5.3h-4.42z" class="cls-16" transform="rotate(15.57 246.58 257.65)"/><path d="M248.64 256.19h4.42v5.3h-4.42z" class="cls-16" transform="rotate(15.57 250.84 258.84)"/><path d="M252.9 257.38h4.42v5.3h-4.42z" class="cls-16" transform="rotate(15.57 255.1 260.02)"/><path d="M257.16 258.56h4.42v5.3h-4.42z" class="cls-16" transform="rotate(15.57 259.37 261.21)"/><path d="M261.36 259.74h4.42v5.3h-4.42z" class="cls-16" transform="rotate(15.57 263.57 262.38)"/><path d="M265.62 260.92h4.42v5.3h-4.42z" class="cls-16" transform="rotate(15.57 267.83 263.57)"/><path d="M269.88 262.11h4.42v5.3h-4.42z" class="cls-16" transform="rotate(15.57 272.09 264.75)"/><path d="M274.14 263.3h4.42v5.3h-4.42z" class="cls-16" transform="rotate(15.55 276.77 266.44)"/><path d="M278.4 264.49h4.42v5.3h-4.42z" class="cls-16" transform="rotate(15.57 280.6 267.13)"/><path d="M282.66 265.67h4.42v5.3h-4.42z" class="cls-16" transform="rotate(15.57 284.87 268.32)"/><path d="M286.92 266.86h4.42v5.3h-4.42z" class="cls-16" transform="rotate(15.57 289.13 269.5)"/><path d="M291.19 267.99h4.02v5.3h-4.02z" class="cls-16" transform="rotate(15.57 293.2 270.64)"/><path d="M295.11 269.08h4.02v5.3h-4.02z" class="cls-16" transform="rotate(15.57 297.12 271.73)"/><path d="M323.54 287.68h4.02v5.3h-4.02z" class="cls-16" transform="rotate(15.57 325.55 290.32)"/><path d="M328.63 289.1h4.02v5.3h-4.02z" class="cls-16" transform="rotate(15.57 330.64 291.74)"/><path d="M333.72 290.56h4.3v5.3h-4.3z" class="cls-16" transform="rotate(15.57 335.87 293.2)"/><path d="M339.17 292.08h4.3v5.3h-4.3z" class="cls-16" transform="rotate(15.57 341.32 294.72)"/><path d="M344.62 293.59h4.3v5.3h-4.3z" class="cls-16" transform="rotate(15.57 346.76 296.24)"/><path d="M350.07 295.11h4.3v5.3h-4.3z" class="cls-16" transform="rotate(15.57 352.21 297.76)"/><path d="M355.52 296.63h4.3v5.3h-4.3z" class="cls-16" transform="rotate(15.57 357.66 299.28)"/><path d="M360.97 298.15h4.3v5.3h-4.3z" class="cls-16" transform="rotate(15.57 363.11 300.8)"/><path d="M366.42 299.67h4.3v5.3h-4.3z" class="cls-16" transform="rotate(15.55 369.13 302.9)"/><path d="M371.87 301.19h4.3v5.3h-4.3z" class="cls-16" transform="rotate(15.57 374.01 303.83)"/><path d="M377.32 302.71h4.3v5.3h-4.3z" class="cls-16" transform="rotate(15.57 379.46 305.35)"/><path d="M382.77 304.23h4.3v5.3h-4.3z" class="cls-16" transform="rotate(15.57 384.91 306.87)"/><path d="M302.77 245.97h26v5.05h-26z" class="cls-16" transform="rotate(15.55 316.26 248.97)"/><path d="M220.85 251.09h176.08v5.05H220.85z" class="cls-16" transform="rotate(15.55 309.37 254.1)"/><path d="M205.98 257.36H354.7v5.05H205.98z" class="cls-16" transform="rotate(15.57 280.33 259.89)"/><path d="M323.71 286.94h68.25v5.05h-68.25z" class="cls-16" transform="rotate(15.57 357.83 289.46)"/><path d="M251.89 324.82h128.37v5.05H251.89z" class="cls-16" transform="rotate(15.57 316.07 327.34)"/><path d="M243.61 332.96h128.37v5.05H243.61z" class="cls-16" transform="rotate(15.55 308.26 336.1)"/><path d="M274.85 280.46h16.46v5.05h-16.46z" class="cls-16" transform="rotate(15.57 283.07 282.98)"/><path d="M273.49 285.32h16.46v5.05h-16.46z" class="cls-16" transform="rotate(15.55 282.15 288.39)"/><path d="M271.44 292.67h16.46v5.05h-16.46z" class="cls-16" transform="rotate(15.57 279.67 295.19)"/><path d="M173.84 280.26h14.86v5.05h-14.86z" class="cls-16" transform="rotate(15.57 181.26 282.78)"/><path d="M189.02 284.26h13.2v5.05h-13.2z" class="cls-16" transform="rotate(15.57 195.62 286.78)"/><path d="M202.38 287.98h13.2v5.05h-13.2z" class="cls-16" transform="rotate(15.57 208.98 290.5)"/><path d="M215.74 291.71h13.2v5.05h-13.2z" class="cls-16" transform="rotate(15.57 222.33 294.23)"/><path d="M229.09 295.43h13.2v5.05h-13.2z" class="cls-16" transform="rotate(15.57 235.69 297.95)"/><path d="M242.45 299.15h13.2v5.05h-13.2z" class="cls-16" transform="rotate(15.57 249.05 301.67)"/><path d="M255.81 302.87h13.2v5.05h-13.2z" class="cls-16" transform="rotate(15.57 262.4 305.4)"/><path d="M269.17 306.6h13.2v5.05h-13.2z" class="cls-16" transform="rotate(15.57 275.76 309.12)"/><path d="M282.37 311.42h21.37v5.05h-21.37z" class="cls-16" transform="rotate(15.57 293.05 313.94)"/><path d="M303.86 319.82h38.75v5.05h-38.75z" class="cls-16" transform="rotate(15.57 323.23 322.35)"/><path d="M342.06 330.41h38.36v5.05h-38.36z" class="cls-16" transform="rotate(15.57 361.23 332.93)"/><path d="M189.62 225.83h213.44v27.78H189.62z" class="cls-16" transform="rotate(15.57 296.34 239.71)"/><path d="M147.72 372.07h106.79v21.39H147.72z" class="cls-15" transform="rotate(15.55 201.4 383.45)"/><path fill="#fafdfc" d="M255.2 343.78h115.72v74.76H255.2z" transform="rotate(15.57 313.05 381.15)"/><text fill="#626161" font-family="Arial-BoldMT,Arial" font-size="5.14" transform="rotate(15.57 -1156.8 1183.62)"><tspan font-weight="700">ОБОВ&apos;ЯЗКОВОГО СТРАХУВАННЯ</tspan><tspan x="85.94" y="0" font-family="ArialMT,Arial"> </tspan><tspan font-size="3.43" font-weight="700"><tspan x="6.28" y="4.97">ЦИВІЛЬНО-ПРАВОВОЇ ВІДПОВІДАЛЬНОСТІ </tspan><tspan x=".27" y="9.09">ВЛАСНИКІВ НАЗЕМНИХ ТРАНСПОРТНИХ ЗАСОБІВ</tspan></tspan></text><text fill="#626161" font-family="ArialMT,Arial" font-size="6" transform="rotate(15.57 -1148.13 1406.77)">АВ /</text><text fill="#626161" font-family="Arial-ItalicMT,Arial" font-size="3.43" font-style="italic" transform="rotate(15.57 -1212.54 1169.47)">Дійсне до:</text><text class="cls-24" transform="rotate(15.57 -1266.15 1170.92)">День</text><text class="cls-24" transform="rotate(15.57 -450.28 839.63)">зашкоду, заподіяну життю і здоров’ю</text><text class="cls-24" transform="rotate(15.57 -478.1 834.83)">зашкоду, заподіяну майну</text><text class="cls-24" transform="rotate(15.57 -1288.28 1158.97)">Спеціальний знак<tspan x="10.56" y="3.6">до Полісу</tspan></text><text class="cls-24" transform="rotate(15.57 -1279.75 1270.33)">Місяць (прописом)</text><text class="cls-24" transform="rotate(15.57 -1335.1 1272.28)">Серія</text><text class="cls-24" transform="rotate(15.57 -1353.02 1403.35)">Номер</text><text fill="#626161" font-family="ArialMT,Arial" font-size="6.43" transform="rotate(15.57 -1321.22 1322.54)">/</text><text class="cls-24" transform="rotate(15.57 -1305.46 1458.37)">Рік</text><path d="M268.23 371.07h5.88v8.14h-5.88z" class="cls-26" transform="rotate(15.57 271.16 375.14)"/><path d="M281.85 374.9h6.09v8.14h-6.09z" class="cls-26" transform="rotate(15.55 285.3 379.66)"/><path d="M287.71 376.53h6.09v8.14h-6.09z" class="cls-26" transform="rotate(15.55 291.18 381.3)"/><path d="M293.58 378.17h6.09v8.14h-6.09z" class="cls-26" transform="rotate(15.55 297.06 382.93)"/><path d="M299.44 379.8h6.09v8.14h-6.09z" class="cls-26" transform="rotate(15.57 302.49 383.87)"/><path d="M305.31 381.44h6.09v8.14h-6.09z" class="cls-26" transform="rotate(15.57 308.35 385.5)"/><path d="M311.18 383.07h6.09v8.14h-6.09z" class="cls-26" transform="rotate(15.57 314.21 387.14)"/><path d="M317.04 384.7h6.09v8.14h-6.09z" class="cls-26" transform="rotate(15.57 320.08 388.77)"/><path d="M322.9 386.34h6.09v8.14h-6.09z" class="cls-26" transform="rotate(15.57 325.94 390.4)"/><path d="M328.77 387.97h6.09v8.14h-6.09z" class="cls-26" transform="rotate(15.57 331.81 392.04)"/><path d="M336.46 390.12h6.09v8.14h-6.09z" class="cls-26" transform="rotate(15.57 339.5 394.18)"/><path d="M342.33 391.75h6.09v8.14h-6.09z" class="cls-26" transform="rotate(15.57 345.37 395.82)"/><path d="M348.19 393.39h6.09v8.14h-6.09z" class="cls-26" transform="rotate(15.55 351.76 398.19)"/><path d="M354.06 395.02h6.09v8.14h-6.09z" class="cls-26" transform="rotate(15.55 357.63 399.83)"/><path d="M273.89 372.65h5.88v8.14h-5.88z" class="cls-26" transform="rotate(15.57 276.83 376.72)"/><path d="M311.28 398.89h6.61v8.14h-6.61z" class="cls-26" transform="rotate(15.57 314.58 402.96)"/><path d="M317.65 400.67h6.61v8.14h-6.61z" class="cls-26" transform="rotate(15.57 320.95 404.73)"/><path d="M324.02 402.44h6.61v8.14h-6.61z" class="cls-26" transform="rotate(15.57 327.32 406.5)"/><path d="M330.38 404.22h6.61v8.14h-6.61z" class="cls-26" transform="rotate(15.57 333.68 408.28)"/><path d="M336.75 405.99h6.61v8.14h-6.61z" class="cls-26" transform="rotate(15.55 340.55 410.81)"/><path d="M343.12 407.76h6.61v8.14h-6.61z" class="cls-26" transform="rotate(15.55 346.93 412.59)"/><path d="M349.48 409.54h6.61v8.14h-6.61z" class="cls-26" transform="rotate(15.55 353.3 414.37)"/><path d="M292.65 393.6h5.88v8.14h-5.88z" class="cls-26" transform="rotate(15.57 295.59 397.66)"/><path d="M298.32 395.18h5.88v8.14h-5.88z" class="cls-26" transform="rotate(15.57 301.25 399.24)"/><path d="M266.63 333.1h115.72v14.07H266.63z" class="cls-27" transform="rotate(15.57 324.49 340.13)"/><text class="cls-28" transform="rotate(15.57 -1077.97 1188.73)">2016</text><text class="cls-28" transform="rotate(15.57 -1107.11 1401.87)">2017</text><path d="M244.19 413.61h115.72v14.07H244.19z" class="cls-27" transform="rotate(15.57 302.05 420.63)"/><text class="cls-28" transform="rotate(15.57 -1383.57 1146.95)">2018</text><text class="cls-28" transform="rotate(15.57 -1412.72 1360.09)">2019</text><text fill="#626161" font-family="Arial-BoldMT,Arial" font-size="6" font-weight="700" transform="rotate(15.57 -242.23 1132.25)">ПОЛІС № АВ /</text><text class="cls-30" transform="rotate(15.57 -251.22 1062.6)">обов&apos;язкового страхування цивільно-правової відповідальності <tspan x="19.54" y="4.11">власників наземних транспортних засобів</tspan><tspan font-family="Arial-BoldItalicMT,Arial" font-style="italic"><tspan x="33.05" y="8.23">(діє на території України)</tspan></tspan></text><text fill="#626161" font-family="ArialMT,Arial" font-size="3.43" transform="rotate(15.57 -351.88 1141.14)">2. Страховим випадком є подія, внаслідок якої заподіяна шкода третім особам під час <tspan x="0" y="4.11">дорожньо-транспортної пригоди, яка сталася за участю забезпеченого транспортного </tspan><tspan x="0" y="8.23">засобу і внаслідок якої настає цивільно-правова відповідальність особи, </tspan><tspan x="0" y="12.34">відповідальність якої застрахована за договором (полісом).</tspan></text><text class="cls-33" transform="rotate(15.57 -264.33 875.3)">1. Страховик (назва, адреса, номер телефону)</text><text class="cls-33" transform="rotate(15.57 -324.5 1145.24)">Код страховика</text><text class="cls-34" transform="rotate(15.57 -393.95 849.51)">3. Строк дії з</text><text class="cls-30" transform="rotate(15.57 -433.62 846.26)">4. Страхова сума (ліміт відповідальності) на одного потерпілого, грн.</text><text class="cls-30" transform="rotate(15.57 -534.7 832.44)">6. Страхувальник (П.І.Б./назва організації)</text><text class="cls-30" transform="rotate(15.57 -740.73 804.27)">7. Забезпечений транспортний засіб (ТЗ)</text><text class="cls-30" transform="rotate(15.57 -810.47 794.73)">8. Особливі умови використрання забезпеченого ТЗ</text><text class="cls-30" transform="rotate(15.57 -909.2 781.23)">9. Базовий платіж (Бп) та коефіцієнти (К), що застосовувалися для розрахунку розміру страхового платежу</text><text class="cls-30" transform="rotate(15.57 -967.2 773.3)">10. Страховий платіж</text><text class="cls-33" transform="rotate(15.57 -827.57 797.19)">ТЗ використовується протягом календарних місяців, які не викреслені знаком Х</text><text class="cls-33" transform="rotate(15.57 -842.98 795.08)">ТЗ використовується як таксі/маршрутне таксі</text><text class="cls-33" transform="rotate(15.57 -860.74 792.65)"><tspan>ТЗ підлягає обов’язковому технічному контролю (ОТК)</tspan></text><text class="cls-33" transform="rotate(15.57 -878.24 790.26)">до курування допущені особи з водійським стажем менше 3-х років<tspan x="0" y="3.6">та / або водійский стаж страхувальника менше 3-х років</tspan></text><text class="cls-34" transform="rotate(15.57 -510.94 835.69)">5. Розмір франшизи, грн.</text><text class="cls-34" transform="rotate(15.57 -1223.83 738.21)">13. Підписи сторін:</text><text class="cls-33" transform="rotate(15.57 -1246.41 739.92)">Страхувальник</text><text class="cls-35" transform="rotate(15.57 -1342.45 1000.58)">підпис, м.п.</text><text class="cls-34" transform="rotate(15.57 -1180.33 744.16)">12. Дата укладання договору</text><text class="cls-34" transform="rotate(15.57 -1036.19 767.06)">11. Примітки</text><text class="cls-36" transform="rotate(15.57 -426.18 944.6)">годин</text><text class="cls-36" transform="rotate(15.57 -432.09 987.82)">хвилин</text><text class="cls-36" transform="rotate(15.57 -438.8 1036.88)">день</text><text class="cls-36" transform="rotate(15.57 -444.73 1080.25)">місяць</text><text class="cls-36" transform="rotate(15.57 -453.02 1140.9)">рік</text><text class="cls-36" transform="rotate(15.57 -462.11 1207.4)">день</text><text class="cls-36" transform="rotate(15.57 -468.16 1251.66)">місяць</text><text class="cls-36" transform="rotate(15.57 -475.57 1305.84)">рік</text><text class="cls-37" transform="rotate(15.57 -527.43 1280.82)">(прописом)</text><text class="cls-37" transform="rotate(15.57 -557.73 1276.67)">(прописом)</text><text class="cls-37" transform="rotate(15.57 -586.72 1272.7)">(прописом)</text><text class="cls-33" transform="rotate(15.57 -435.42 1121.67)">201</text><text class="cls-33" transform="rotate(15.57 -589.83 1226.34)">Адреса</text><text class="cls-33" transform="rotate(15.57 -663.91 1211.64)">Телефон</text><text class="cls-33" transform="rotate(15.57 -602.55 823.16)">ЄДРПОУ<tspan x="0" y="3.6">(для юридичних осіб)</tspan></text><text class="cls-33" transform="rotate(15.57 -654.17 824.09)">Дата народження</text><text class="cls-33" transform="rotate(15.57 -689.95 819.2)">назва документа</text><text class="cls-33" transform="rotate(15.57 -715.8 815.66)">ким виданий документ</text><text class="cls-33" transform="rotate(15.57 -763.36 801.17)">Марка, модель</text><text class="cls-33" transform="rotate(15.57 -789.22 797.64)">VIN (номер кузова, шасі, рами)</text><text class="cls-33" transform="rotate(15.57 -843.57 1236.03)">Населений пункт<tspan x="0" y="3.6">місця реєстрації</tspan></text><text class="cls-33" transform="rotate(15.57 -934.03 1328.64)">Дата наступного ОТК</text><text class="cls-33" transform="rotate(15.57 -852.8 1433.93)">Рік випуску</text><text class="cls-33" transform="rotate(15.57 -730.18 1113.43)">серія</text><text class="cls-33" transform="rotate(15.57 -780.13 1092.44)">Тип</text><text class="cls-33" transform="rotate(15.57 -927.49 801.15)">Бп</text><text class="cls-38" transform="rotate(15.57 -932.6 838.5)">К1(тип)</text><text class="cls-38" transform="rotate(15.57 -939.78 891)">К2(місце)</text><text class="cls-38" transform="rotate(15.57 -946.5 940.24)">К3(сфера)</text><text class="cls-38" transform="rotate(15.57 -953.44 990.92)">К4(стаж)</text><text class="cls-38" transform="rotate(15.57 -960.24 1040.67)">К5(період)</text><text class="cls-38" transform="rotate(15.57 -966.97 1089.91)">К6(шахр-во)</text><text class="cls-38" transform="rotate(15.57 -975.33 1151.03)">К(строк)</text><text class="cls-38" transform="rotate(15.57 -982.5 1203.4)">К(бонус-малус)</text><text class="cls-38" transform="rotate(15.57 -992.2 1274.39)">Зменшення за кількість (%)</text><text class="cls-38" transform="rotate(15.57 -1012.29 1421.31)">Зменшення пільговику (%)</text><text class="cls-33" transform="rotate(15.57 -789.77 1162.9)">Номерний знак</text><text class="cls-33" transform="rotate(15.57 -998.47 993.4)">грн.</text><text class="cls-33" transform="rotate(15.57 -1007.54 1059.75)">коп.</text><text class="cls-35" transform="rotate(15.57 -886.47 1224.18)">(для річних договорів)</text><text class="cls-33" transform="rotate(15.57 -899.56 1213.13)">(вказати так або ні)</text><text class="cls-33" transform="rotate(15.57 -917.32 1210.7)">(вказати так або ні)</text><text class="cls-33" transform="rotate(15.57 -947.99 1206.5)">(вказати так або ні)</text><text class="cls-33" transform="rotate(15.57 -901.17 1331.73)">1</text><text class="cls-33" transform="rotate(15.57 -903.94 1351.91)">2</text><text class="cls-33" transform="rotate(15.57 -906.7 1372.09)">3</text><text class="cls-33" transform="rotate(15.57 -909.45 1392.27)">4</text><text class="cls-33" transform="rotate(15.57 -912.21 1412.45)">5</text><text class="cls-33" transform="rotate(15.57 -914.97 1432.62)">6</text><text class="cls-33" transform="rotate(15.57 -917.73 1452.8)">7</text><text class="cls-33" transform="rotate(15.57 -920.49 1472.97)">8</text><text class="cls-33" transform="rotate(15.57 -923.25 1493.16)">9</text><text class="cls-33" transform="rotate(15.57 -926 1513.34)">10</text><text class="cls-33" transform="rotate(15.57 -928.76 1533.51)">11</text><text class="cls-33" transform="rotate(15.57 -931.52 1553.68)">12</text><text class="cls-33" transform="rotate(15.57 -741.28 1194.6)">номер</text><text class="cls-33" transform="rotate(15.57 -759.96 1331.22)">дата видачі</text><text class="cls-33" transform="rotate(15.57 -791.72 1563.54)">року.</text><text class="cls-33" transform="rotate(15.57 -673.1 821.5)">Документ, що посвідчує особу (для пільговика - документ, що підтверджує його право на зменшення розміру страхового платежу):</text><text class="cls-33" transform="rotate(15.57 -691.94 1100.31)">року</text><text class="cls-33" transform="rotate(15.57 -703.75 1186.7)">ІНПП</text><text fill="#626161" font-family="Arial-BoldItalicMT,Arial" font-size="3" font-style="italic" font-weight="700" transform="rotate(15.57 -634.36 825.2)">Виключно для страхувальника - фізичної особи:</text><text class="cls-33" transform="rotate(15.57 -616.17 1418.99)">Поштовий індекс</text><text class="cls-33" transform="rotate(15.57 -443.37 1179.8)">до</text><text class="cls-33" transform="rotate(15.57 -457.9 1286.03)">201</text><text class="cls-36" transform="rotate(15.57 -965.31 1450.42)">день</text><text class="cls-36" transform="rotate(15.57 -971.37 1494.68)">місяць</text><text class="cls-36" transform="rotate(15.57 -978.77 1548.86)">рік</text><text class="cls-33" transform="rotate(15.57 -961.1 1529.05)">201</text><text class="cls-36" transform="rotate(15.57 -1226.5 942.44)">день</text><text class="cls-36" transform="rotate(15.57 -1232.55 986.7)">місяць</text><text class="cls-36" transform="rotate(15.57 -1239.96 1040.88)">рік</text><text class="cls-33" transform="rotate(15.57 -1222.29 1021.06)">201</text><text class="cls-36" transform="rotate(15.57 -1043.2 934.38)">день</text><text class="cls-36" transform="rotate(15.57 -1031.6 849.59)">годин</text><text class="cls-36" transform="rotate(15.57 -1036.52 885.56)">хвилин</text><text class="cls-36" transform="rotate(15.57 -1049.24 978.63)">місяць</text><text class="cls-36" transform="rotate(15.57 -1056.65 1032.82)">рік</text><text class="cls-33" transform="rotate(15.57 -1038.97 1013)">201</text><text class="cls-33" transform="rotate(15.57 -1007.23 780.8)">сплачений</text><text class="cls-33" transform="rotate(15.57 -464.55 1334.73)">включно</text><text class="cls-33" transform="rotate(15.57 -473.61 1428.23)">Договір (поліс) набирає чинності з <tspan x="0" y="3.6">початку зазначеного строку його дії</tspan></text><use width="11.46" height="12.41" transform="rotate(15.57 -324.71 1238.27) scale(.429)" xlink:href="#spc"/><use width="11.46" height="12.41" transform="rotate(15.57 -327.44 1258.22) scale(.429)" xlink:href="#spc"/><use width="11.46" height="12.41" transform="rotate(15.57 -330.16 1278.18) scale(.429)" xlink:href="#spc"/><use width="11.46" height="12.41" transform="rotate(15.57 -395 942.73) scale(.429)" xlink:href="#spc"/><use width="11.46" height="12.41" transform="rotate(15.57 -397.72 962.68) scale(.429)" xlink:href="#spc"/><use width="11.46" height="12.41" transform="rotate(15.57 -401.11 987.48) scale(.429)" xlink:href="#spc"/><use width="11.46" height="12.41" transform="rotate(15.57 -403.84 1007.43) scale(.429)" xlink:href="#spc"/><use width="11.46" height="12.41" transform="rotate(15.57 -407.24 1032.3) scale(.429)" xlink:href="#spc"/><use width="11.46" height="12.41" transform="rotate(15.57 -409.97 1052.26) scale(.429)" xlink:href="#spc"/><use width="11.46" height="12.41" transform="rotate(15.57 -413.55 1078.44) scale(.429)" xlink:href="#spc"/><use width="11.46" height="12.41" transform="rotate(15.57 -416.28 1098.4) scale(.429)" xlink:href="#spc"/><use width="11.46" height="12.41" transform="rotate(15.57 -422.29 1142.37) scale(.429)" xlink:href="#spc"/><use width="11.46" height="12.41" transform="rotate(15.57 -430.4 1201.62) scale(.429)" xlink:href="#spc"/><use width="11.46" height="12.41" transform="rotate(15.57 -433.12 1221.57) scale(.429)" xlink:href="#spc"/><use width="11.46" height="12.41" transform="rotate(15.57 -436.7 1247.75) scale(.429)" xlink:href="#spc"/><use width="11.46" height="12.41" transform="rotate(15.57 -439.43 1267.7) scale(.429)" xlink:href="#spc"/><use width="11.46" height="12.41" transform="rotate(15.57 -444.8 1306.98) scale(.429)" xlink:href="#spc"/><use width="11.46" height="12.41" transform="rotate(15.57 -613.08 1516.08) scale(.429)" xlink:href="#spc"/><use width="11.46" height="12.41" transform="rotate(15.57 -615.83 1536.16) scale(.429)" xlink:href="#spc"/><use width="11.46" height="12.41" transform="rotate(15.57 -618.57 1556.24) scale(.429)" xlink:href="#spc"/><use width="11.46" height="12.41" transform="rotate(15.57 -621.32 1576.32) scale(.429)" xlink:href="#spc"/><use width="11.46" height="12.41" transform="rotate(15.57 -624.07 1596.4) scale(.429)" xlink:href="#spc"/><use width="11.46" height="12.41" transform="rotate(15.57 -610.99 946.97) scale(.429)" xlink:href="#spc"/><use width="11.46" height="12.41" transform="rotate(15.57 -613.72 966.96) scale(.429)" xlink:href="#spc"/><use width="11.46" height="12.41" transform="rotate(15.57 -616.45 986.94) scale(.429)" xlink:href="#spc"/><use width="11.46" height="12.41" transform="rotate(15.57 -619.19 1006.92) scale(.429)" xlink:href="#spc"/><use width="11.46" height="12.41" transform="rotate(15.57 -621.92 1026.91) scale(.429)" xlink:href="#spc"/><use width="11.46" height="12.41" transform="rotate(15.57 -624.65 1046.9) scale(.429)" xlink:href="#spc"/><use width="11.46" height="12.41" transform="rotate(15.57 -627.38 1066.88) scale(.429)" xlink:href="#spc"/><use width="11.46" height="12.41" transform="rotate(15.57 -630.11 1086.86) scale(.429)" xlink:href="#spc"/><use width="11.46" height="12.41" transform="rotate(15.57 -653.86 920.59) scale(.429)" xlink:href="#spc"/><use width="11.46" height="12.41" transform="rotate(15.57 -656.6 940.57) scale(.429)" xlink:href="#spc"/><use width="11.46" height="12.41" transform="rotate(15.57 -660.55 969.5) scale(.429)" xlink:href="#spc"/><use width="11.46" height="12.41" transform="rotate(15.57 -663.28 989.49) scale(.429)" xlink:href="#spc"/><use width="11.46" height="12.41" transform="rotate(15.57 -667 1016.65) scale(.429)" xlink:href="#spc"/><use width="11.46" height="12.41" transform="rotate(15.57 -669.73 1036.63) scale(.429)" xlink:href="#spc"/><use width="11.46" height="12.41" transform="rotate(15.57 -672.43 1056.38) scale(.429)" xlink:href="#spc"/><use width="11.46" height="12.41" transform="rotate(15.57 -675.16 1076.37) scale(.429)" xlink:href="#spc"/><use width="11.46" height="12.41" transform="rotate(15.57 -695.26 1223.34) scale(.429)" xlink:href="#spc"/><use width="11.46" height="12.41" transform="rotate(15.57 -697.99 1243.32) scale(.429)" xlink:href="#spc"/><use width="11.46" height="12.41" transform="rotate(15.57 -700.69 1263.08) scale(.429)" xlink:href="#spc"/><use width="11.46" height="12.41" transform="rotate(15.57 -703.42 1283.06) scale(.429)" xlink:href="#spc"/><use width="11.46" height="12.41" transform="rotate(15.57 -706.1 1302.65) scale(.429)" xlink:href="#spc"/><use width="11.46" height="12.41" transform="rotate(15.57 -708.83 1322.64) scale(.429)" xlink:href="#spc"/><use width="11.46" height="12.41" transform="rotate(15.57 -711.53 1342.39) scale(.429)" xlink:href="#spc"/><use width="11.46" height="12.41" transform="rotate(15.57 -714.26 1362.37) scale(.429)" xlink:href="#spc"/><use width="11.46" height="12.41" transform="rotate(15.57 -717.09 1383.02) scale(.429)" xlink:href="#spc"/><use width="11.46" height="12.41" transform="rotate(15.57 -719.82 1403) scale(.429)" xlink:href="#spc"/><use width="11.46" height="12.41" transform="rotate(15.57 -758.98 1395.5) scale(.41 .429)" xlink:href="#spc"/><use width="11.46" height="12.41" transform="rotate(15.57 -761.6 1414.64) scale(.41 .429)" xlink:href="#spc"/><use width="11.46" height="12.41" transform="rotate(15.57 -765.38 1442.34) scale(.41 .429)" xlink:href="#spc"/><use width="11.46" height="12.41" transform="rotate(15.57 -768 1461.48) scale(.41 .429)" xlink:href="#spc"/><use width="11.46" height="12.41" transform="rotate(15.57 -771.55 1487.5) scale(.41 .429)" xlink:href="#spc"/><use width="11.46" height="12.41" transform="rotate(15.57 -774.17 1506.63) scale(.41 .429)" xlink:href="#spc"/><use width="11.46" height="12.41" transform="rotate(15.57 -776.76 1525.54) scale(.41 .429)" xlink:href="#spc"/><use width="11.46" height="12.41" transform="rotate(15.57 -779.37 1544.68) scale(.41 .429)" xlink:href="#spc"/><use width="11.46" height="12.41" transform="rotate(15.57 -849.25 1500.85) scale(.429)" xlink:href="#spc"/><use width="11.46" height="12.41" transform="rotate(15.57 -851.98 1520.83) scale(.429)" xlink:href="#spc"/><use width="11.46" height="12.41" transform="rotate(15.57 -854.8 1541.48) scale(.429)" xlink:href="#spc"/><use width="11.46" height="12.41" transform="rotate(15.57 -857.54 1561.46) scale(.429)" xlink:href="#spc"/><use width="11.46" height="12.41" transform="rotate(15.57 -938.64 1443.37) scale(.429)" xlink:href="#spc"/><use width="11.46" height="12.41" transform="rotate(15.57 -941.37 1463.32) scale(.429)" xlink:href="#spc"/><use width="11.46" height="12.41" transform="rotate(15.57 -944.95 1489.5) scale(.429)" xlink:href="#spc"/><use width="11.46" height="12.41" transform="rotate(15.57 -947.68 1509.46) scale(.429)" xlink:href="#spc"/><use width="11.46" height="12.41" transform="rotate(15.57 -953.05 1548.74) scale(.429)" xlink:href="#spc"/><use width="11.46" height="12.41" transform="rotate(15.57 -971.81 912.39) scale(.429)" xlink:href="#spc"/><use width="11.46" height="12.41" transform="rotate(15.57 -974.54 932.37) scale(.429)" xlink:href="#spc"/><use width="11.46" height="12.41" transform="rotate(15.57 -977.24 952.12) scale(.429)" xlink:href="#spc"/><use width="11.46" height="12.41" transform="rotate(15.57 -979.98 972.1) scale(.429)" xlink:href="#spc"/><use width="11.46" height="12.41" transform="rotate(15.57 -986.44 1019.37) scale(.429)" xlink:href="#spc"/><use width="11.46" height="12.41" transform="rotate(15.57 -989.17 1039.35) scale(.429)" xlink:href="#spc"/><use width="11.46" height="12.41" transform="rotate(15.57 -1001.23 841.71) scale(.429)" xlink:href="#spc"/><use width="11.46" height="12.41" transform="rotate(15.57 -1003.96 861.7) scale(.429)" xlink:href="#spc"/><use width="11.46" height="12.41" transform="rotate(15.57 -1007.17 885.19) scale(.429)" xlink:href="#spc"/><use width="11.46" height="12.41" transform="rotate(15.57 -1009.9 905.17) scale(.429)" xlink:href="#spc"/><use width="11.46" height="12.41" transform="rotate(15.57 -1013.07 928.3) scale(.429)" xlink:href="#spc"/><use width="11.46" height="12.41" transform="rotate(15.57 -1015.8 948.28) scale(.429)" xlink:href="#spc"/><use width="11.46" height="12.41" transform="rotate(15.57 -1019.17 972.94) scale(.429)" xlink:href="#spc"/><use width="11.46" height="12.41" transform="rotate(15.57 -1021.9 992.92) scale(.429)" xlink:href="#spc"/><use width="11.46" height="12.41" transform="rotate(15.57 -1027.39 1033.04) scale(.429)" xlink:href="#spc"/><use width="11.46" height="12.41" transform="rotate(15.57 -1195.12 939.33) scale(.429)" xlink:href="#spc"/><use width="11.46" height="12.41" transform="rotate(15.57 -1197.85 959.32) scale(.429)" xlink:href="#spc"/><use width="11.46" height="12.41" transform="rotate(15.57 -1201.22 983.97) scale(.429)" xlink:href="#spc"/><use width="11.46" height="12.41" transform="rotate(15.57 -1203.95 1003.95) scale(.429)" xlink:href="#spc"/><use width="11.46" height="12.41" transform="rotate(15.57 -1209.44 1044.07) scale(.429)" xlink:href="#spc"/><g id="mobile"><g id="mobile-body"><ellipse cx="147.81" cy="459.71" fill="url(#radial-gradient-3)" rx="147.01" ry="20.29"/><ellipse cx="83.45" cy="459.71" fill="url(#radial-gradient-4)" rx="83.45" ry="20.29"/><ellipse cx="213.49" cy="459.71" fill="url(#radial-gradient-5)" rx="83.45" ry="20.29"/><path d="M256.42 42.79c0-14.95-1.54-24.25-11.02-33.53C236.25.3 223.05 0 218.57 0H66.7c-4.47 0-17.68.3-26.83 9.26-9.47 9.29-11.01 18.58-11.01 33.53v373.9c0 14.95 1.54 24.24 11.01 33.53 9.16 8.96 22.36 9.26 26.83 9.26h151.88c4.48 0 17.69-.3 26.83-9.26 9.48-9.29 11.02-18.58 11.02-33.53z"/><path fill="url(#linear-gradient-4)" d="M244.56 10.13c-4.15-4.11-12.04-8.92-25.99-8.92H66.7c-13.98 0-21.83 4.85-25.98 8.92C31.66 19 30 27.73 30 42.79v373.9c0 15.07 1.6 23.82 10.7 32.66 4.16 4.11 12.04 8.92 25.99 8.92h151.88c13.98 0 21.83-4.85 25.98-8.92 9.05-8.87 10.7-17.6 10.7-32.66V42.79c-.04-15.06-1.64-23.79-10.7-32.66zm8.48 406.54c0 14.79-1.45 22.74-10 31.11-3.87 3.79-11.25 8.3-24.46 8.3H66.7c-13.2 0-20.56-4.5-24.46-8.3-8.55-8.37-10-16.37-10-31.1V42.78c0-14.78 1.44-22.73 10-31.11 3.87-3.79 11.25-8.3 24.45-8.3h151.9c13.2 0 20.56 4.5 24.45 8.3 8.56 8.38 10 16.37 10 31.11z"/><path fill="#545454" d="M242.5 12.22c-3.76-3.69-10.97-8.08-23.93-8.08H66.7c-12.95 0-20.16 4.4-23.92 8.08-8.37 8.21-9.78 16.05-9.78 30.58v373.89c0 14.53 1.42 22.39 9.78 30.58 3.76 3.69 10.98 8.08 23.93 8.08h151.88c12.96 0 20.16-4.4 23.93-8.08 8.36-8.22 9.77-16.05 9.77-30.58V42.79c0-14.52-1.4-22.39-9.77-30.57zm8.87 404.47c0 14.26-1.37 21.97-9.5 29.93-3.64 3.57-10.65 7.82-23.3 7.82H66.7c-12.65 0-19.66-4.25-23.3-7.82-8.12-7.96-9.5-15.67-9.5-29.93V42.79c0-14.27 1.38-21.97 9.5-29.93 3.65-3.57 10.65-7.82 23.3-7.82h151.88c12.65 0 19.66 4.25 23.3 7.82 8.13 7.96 9.5 15.66 9.5 29.93z"/><path d="M66.7 453.69c-12.4 0-19.24-4.1-22.78-7.62-7.94-7.77-9.28-15.35-9.28-29.39V42.8c0-14.04 1.34-21.62 9.28-29.4 3.54-3.47 10.38-7.6 22.77-7.6h151.88c12.4 0 19.23 4.1 22.78 7.6 7.94 7.77 9.28 15.35 9.28 29.4v373.9c0 14.04-1.35 21.62-9.28 29.4-3.55 3.47-10.37 7.6-22.77 7.6z" class="cls-1"/><path fill="url(#linear-gradient-5)" d="M29.16 79.56h-.56a1.06 1.06 0 0 1-1.09-1.03V63a1.06 1.06 0 0 1 1.07-1.06h.58z"/><path fill="url(#linear-gradient-6)" d="M28.34 61.98a1.06 1.06 0 0 0-.82 1.03v15.46a1.06 1.06 0 0 0 .82 1.02z"/><path fill="url(#linear-gradient-7)" d="M27.75 62.35a1.05 1.05 0 0 0-.23.66v15.46a1.05 1.05 0 0 0 .23.65z"/><path fill="url(#linear-gradient-8)" d="M29.16 128.13h-.56a1.06 1.06 0 0 1-1.06-1.06v-31.2a1.06 1.06 0 0 1 1.06-1.07h.56z"/><path fill="url(#linear-gradient-9)" d="M28.34 94.84a1.06 1.06 0 0 0-.82 1.03v31.21a1.06 1.06 0 0 0 .82 1.03z"/><path fill="url(#linear-gradient-10)" d="M27.75 95.21a1.05 1.05 0 0 0-.23.66v31.21a1.05 1.05 0 0 0 .23.66z"/><path fill="url(#linear-gradient-11)" d="M29.31 170.26h-.32a1.06 1.06 0 0 1-1.06-1.06v-31.21a1.06 1.06 0 0 1 1.06-1.06h.32z"/><path fill="url(#linear-gradient-12)" d="M28.74 136.98a1.06 1.06 0 0 0-.82 1.02v31.21a1.06 1.06 0 0 0 .82 1.03z"/><path fill="url(#linear-gradient-13)" d="M28.16 137.35a1.05 1.05 0 0 0-.23.65v31.21a1.05 1.05 0 0 0 .23.66z"/><path fill="url(#linear-gradient-14)" d="M255.93 106.4h.45a1.47 1.47 0 0 1 1.48 1.46v49.52a1.47 1.47 0 0 1-1.48 1.47h-.45z"/><path fill="url(#linear-gradient-15)" d="M256.73 158.8a1.47 1.47 0 0 0 1.13-1.43v-49.52a1.47 1.47 0 0 0-1.13-1.42z"/><path fill="url(#linear-gradient-16)" d="M257.54 158.28a1.46 1.46 0 0 0 .32-.91v-49.52a1.46 1.46 0 0 0-.32-.9z"/><ellipse cx="167.39" cy="18.11" fill="#1a1a1c" rx="3.5" ry="3.5"/><circle cx="167.39" cy="18.11" r="2.02" fill="url(#radial-gradient-6)" stroke="#0d1010" stroke-miterlimit="10" stroke-width=".26"/><path fill="none" stroke="#1a1a1c" stroke-miterlimit="10" stroke-width="1.06" d="M156.67 18.11a1.89 1.89 0 0 1-1.9 1.86h-24.45a1.87 1.87 0 0 1-1.86-1.86 1.87 1.87 0 0 1 1.86-1.86h24.5a1.84 1.84 0 0 1 1.85 1.86z"/><path fill="url(#linear-gradient-17)" d="M243.54 438.5a17.47 17.47 0 0 0 1.82-5.92c1.21-4.2 1.5-9.19 1.5-15.9V42.8a61.71 61.71 0 0 0-2.46-18.65 30.92 30.92 0 0 0-6.88-11.56 13.63 13.63 0 0 1-2.13-3.48 23.31 23.31 0 0 1 6.2 4.29c7.93 7.77 9.27 15.35 9.27 29.4v373.9c0 14.04-1.34 21.62-9.27 29.4a23.2 23.2 0 0 1-6.1 4.23c.2-1.76 4.68-6.05 8.05-11.83z"/><path fill="url(#linear-gradient-18)" d="M66.7 5.79a38.61 38.61 0 0 0-15.72 2.92 22.38 22.38 0 0 1-.82 2.47c-.73 1.49 1.28.09 5.3-.82A41.34 41.34 0 0 1 66.17 9.1h153.24a32.02 32.02 0 0 1 15.37 4.3c.52.3 1 .6 1.45.91 2.1 1.05 1.03-2.46-.92-4.54-.24-.26-.59-.63-1.04-1.08a39.2 39.2 0 0 0-15.68-2.91z"/><path fill="url(#linear-gradient-19)" d="M218.58 453.69c11.93 0 18.28-7.4 18.98-8.34-5.98 4.79-17.34 4.93-17.34 4.93s-144.34.04-155.77 0c-11.22-.41-16.31-4.6-16.31-4.6s4.4 6.48 18.56 7.98z"/><path fill="url(#linear-gradient-20)" d="M41.95 438.5a17.47 17.47 0 0 1-1.82-5.92c-1.2-4.2-1.5-9.19-1.5-15.9V42.8a61.7 61.7 0 0 1 2.47-18.65 30.92 30.92 0 0 1 6.88-11.56 13.62 13.62 0 0 0 2.13-3.48 23.3 23.3 0 0 0-6.2 4.29c-7.94 7.77-9.28 15.35-9.28 29.4v373.9c0 14.04 1.34 21.62 9.28 29.4a23.18 23.18 0 0 0 6.1 4.23c-.19-1.76-4.69-6.05-8.06-11.83z"/><path d="M28.85 412.6h3.61v2.91h-3.61zM252.81 412.6h3.61v2.91h-3.61zM28.85 43.9h3.61v2.91h-3.61zM252.81 43.9h3.61v2.91h-3.61z" class="cls-64"/><path fill="url(#linear-gradient-21)" d="M43.57 10.47a26.95 26.95 0 0 1 6.45-3.94 28.45 28.45 0 0 0-7.86 2.2c-.6.5-4.99 4.5-6.96 8.06a32.34 32.34 0 0 1 8.37-6.32z"/><path fill="url(#linear-gradient-22)" d="M241.71 10.48a26.63 26.63 0 0 0-6.4-3.95c2.06 0 4.99.98 7.7 2.12a19.91 19.91 0 0 1 1.64 1.48 35.81 35.81 0 0 1 5.5 6.66 32.56 32.56 0 0 0-8.44-6.31z"/><path fill="url(#linear-gradient-23)" d="M241.9 448.83a28.3 28.3 0 0 1-6.36 3.93 22.49 22.49 0 0 0 7.67-2.1 18.73 18.73 0 0 0 1.64-1.46 35.27 35.27 0 0 0 5.36-6.7 32.2 32.2 0 0 1-8.3 6.33z"/><path fill="url(#linear-gradient-24)" d="M43.32 448.8a26.87 26.87 0 0 0 6.42 3.97 22.65 22.65 0 0 1-7.7-2.1 18.63 18.63 0 0 1-1.64-1.47 35.12 35.12 0 0 1-5.34-6.7 31.8 31.8 0 0 0 8.26 6.3z"/></g><g id="mobile-screen" clip-path="url(#clip-path)"><g id="screen"><path d="M42.62 29.68h200.04V499.1H42.62z" class="cls-5"/><use width="426.37" height="168.91" transform="matrix(.469 0 0 2.2 42.62 12.73)" xlink:href="#gradientFill"/><path fill="#f1f5f8" d="M42.62 384.25h200.04v66.08H42.62z"/><path fill="#fcfcf4" d="M207.2 22.78h.8a.26.26 0 0 1 .26.27v5.33a.26.26 0 0 1-.26.27h-.8a.26.26 0 0 1-.26-.27v-5.33a.26.26 0 0 1 .26-.27zm-2.68 1.7v3.9a.26.26 0 0 0 .26.27h.8a.26.26 0 0 0 .26-.27v-3.9a.26.26 0 0 0-.26-.27h-.8a.26.26 0 0 0-.26.27zm-2.43 1.2v2.71a.26.26 0 0 0 .27.27h.8a.26.26 0 0 0 .26-.27v-2.72a.26.26 0 0 0-.26-.26h-.8a.26.26 0 0 0-.27.26zm-2.42.95v1.76a.26.26 0 0 0 .26.27h.8a.26.26 0 0 0 .26-.27v-1.76a.26.26 0 0 0-.26-.27h-.8a.26.26 0 0 0-.26.27zm12.58-1.14a4.44 4.44 0 0 1 6.15 0l1.04-1.05a5.88 5.88 0 0 0-8.22 0l1.06 1.02zM216.9 27l1.03-1.04a3.71 3.71 0 0 0-5.19 0L213.8 27a2.3 2.3 0 0 1 3.11.01zm-2.59.54l1.02 1.03 1.02-1.03a1.51 1.51 0 0 0-2.03 0zm19.67-3.62v3.53a1.32 1.32 0 0 1-1.32 1.31h-9.04a1.31 1.31 0 0 1-1.32-1.31v-3.53a1.31 1.31 0 0 1 1.32-1.31h9.04a1.32 1.32 0 0 1 1.32 1.31zm-.5.01a.82.82 0 0 0-.81-.82h-9.05a.82.82 0 0 0-.82.82v3.52a.82.82 0 0 0 .82.83h9.04a.82.82 0 0 0 .83-.83zm-10.13.01v3.53a.26.26 0 0 0 .26.26h9.06a.26.26 0 0 0 .27-.26v-3.53a.26.26 0 0 0-.27-.26h-9.06a.26.26 0 0 0-.27.26zm11.9 1.76a.7.7 0 0 0-.71-.7v1.41a.7.7 0 0 0 .7-.7z"/><text fill="#fff" font-family="Lato-Bold,Lato,Arial" font-size="8.92" font-weight="700" transform="translate(56.51 28.77)">19:44</text><text class="cls-73" transform="translate(53.91 115.28)">Сервіс оформлення електронних</text><text class="cls-73" transform="translate(90.73 130.26)">полісів автоцивілки</text><path fill="none" stroke="#fff" stroke-linecap="round" stroke-linejoin="round" stroke-width=".53" d="M195.77 58.5h-6.25a1.25 1.25 0 0 1-1.25-1.24V56c0-.69 1.96-1.25 4.37-1.25s4.38.56 4.38 1.25v1.25a1.25 1.25 0 0 1-1.25 1.25zm-3.13-5.61c-1.38 0-1.87-1.12-1.87-2.5s.5-1.88 1.87-1.88 1.88.5 1.88 1.88-.5 2.5-1.88 2.5zM227.02 51h-8.75m8.75 3.13h-5.62m5.63 3.12h-2.5"/><use width="76" height="24.32" transform="matrix(.822 0 0 .821 57.62 44.77)" xlink:href="#logo"/><g id="calc"><path d="M57.62 249.41h170.03a5 5 0 0 1 5 5v194.76a5 5 0 0 1-5 4.99H57.62a5 5 0 0 1-5-5V254.42a5 5 0 0 1 5-5z" class="cls-5"/><use width="45.01" height="13.16" transform="translate(91.38 399.23) scale(2.278)" xlink:href="#btn"/><text fill="#374656" font-family="Lato-Bold,Lato,Arial" font-size="13.73" font-weight="700" style="isolation:isolate" transform="translate(104.3 299.26)">АА 4583 АА</text><text class="cls-76" transform="translate(79.86 274.3)">ВВЕДІТЬ НОМЕР ВАШОГО АВТОМОБІЛЯ</text><path fill="#e8e9eb" d="M62.62 383.62h160.03v.62H62.62z"/><text class="cls-76" transform="translate(108.92 334.22)">МІСТО РЕЄСТРАЦІЇ ТЗ</text><text class="cls-78" transform="translate(105.72 349.2)">Івано-Франківськ</text><text class="cls-79" transform="translate(70.72 369.18)">Дніпро</text><text class="cls-79" transform="translate(105.72 369.18)">Київ</text><text class="cls-79" transform="translate(130.73 369.18)">Львів</text><text class="cls-79" transform="translate(159.49 369.18)">Одеса</text><text class="cls-79" transform="translate(191.36 369.18)">Харків</text></g><g id="tabs"><path d="M57.62 179.5h86.89v29.96h-91.9V184.5a5 5 0 0 1 5-4.99zM52.62 209.46h180.03v24.97a5 5 0 0 1-5 5H57.62a5 5 0 0 1-5-5v-24.97z" class="cls-80"/><text class="cls-78" transform="translate(72.45 227.56)">за єврономером</text><ellipse cx="62.63" cy="224.45" fill="#0052b4" rx="5.01" ry="5"/><text fill="#374656" font-family="Lato-Bold,Lato,Arial" font-size="11.24" font-weight="700" style="isolation:isolate" transform="translate(215.15 228.81)">?</text><text class="cls-78" transform="translate(55.33 197.6)">за параметрами авто</text><path d="M144.51 179.5h83.14a5 5 0 0 1 5 5v24.96h-88.14z" class="cls-5"/><text fill="#374656" font-family="Lato-Bold,Lato,Arial" font-size="8.74" font-weight="700" transform="translate(151.56 197.6)">за держ. номером</text><path d="M143.88 184.49h.63v19.98h-.63zM57.62 208.84h170.03v.62H57.62z" class="cls-84"/><text fill="#fff" font-family="Lato-Regular,Lato,Arial" font-size="8.12" style="isolation:isolate" transform="translate(103.34 174.5)">Розрахувати вартість</text></g></g></g></g></svg>